{
  "accessors": [
    {
      "bufferView": 2,
      "componentType": 5126,
      "count": 65532,
      "max": [
        2.895644426345825,
        52.201175689697266,
        -20.644264221191406
      ],
      "min": [
        -55.96078109741211,
        4.3107733726501465,
        -24.006868362426758
      ],
      "type": "VEC3"
    },
    {
      "bufferView": 2,
      "byteOffset": 786384,
      "componentType": 5126,
      "count": 65532,
      "max": [
        0.9999380707740784,
        0.9998418688774109,
        1.0
      ],
      "min": [
        -0.9999772310256958,
        -0.999946117401123,
        -0.97560054063797
      ],
      "type": "VEC3"
    },
    {
      "bufferView": 1,
      "componentType": 5126,
      "count": 65532,
      "max": [
        0.9995328187942505,
        0.9994086623191833
      ],
      "min": [
        0.00045311625581234694,
        0.00045311625581234694
      ],
      "type": "VEC2"
    },
    {
      "bufferView": 0,
      "componentType": 5125,
      "count": 319239,
      "type": "SCALAR"
    },
    {
      "bufferView": 2,
      "byteOffset": 1572768,
      "componentType": 5126,
      "count": 65532,
      "max": [
        6.605972766876221,
        71.21197509765625,
        -20.828506469726563
      ],
      "min": [
        -52.517826080322266,
        2.641049861907959,
        -23.753620147705078
      ],
      "type": "VEC3"
    },
    {
      "bufferView": 2,
      "byteOffset": 2359152,
      "componentType": 5126,
      "count": 65532,
      "max": [
        0.9999183416366577,
        0.9995009303092957,
        1.0
      ],
      "min": [
        -0.9998183846473694,
        -0.9998151659965515,
        -0.9998305439949036
      ],
      "type": "VEC3"
    },
    {
      "bufferView": 1,
      "byteOffset": 524256,
      "componentType": 5126,
      "count": 65532,
      "max": [
        0.9995331168174744,
        0.9995372891426086
      ],
      "min": [
        0.06496722251176834,
        0.0013339321594685316
      ],
      "type": "VEC2"
    },
    {
      "bufferView": 0,
      "byteOffset": 1276956,
      "componentType": 5125,
      "count": 315489,
      "type": "SCALAR"
    },
    {
      "bufferView": 2,
      "byteOffset": 3145536,
      "componentType": 5126,
      "count": 65532,
      "max": [
        9.364253997802734,
        73.24030303955078,
        -20.276235580444336
      ],
      "min": [
        -54.135231018066406,
        5.952237606048584,
        -23.852176666259766
      ],
      "type": "VEC3"
    },
    {
      "bufferView": 2,
      "byteOffset": 3931920,
      "componentType": 5126,
      "count": 65532,
      "max": [
        0.9999183416366577,
        0.9998350739479065,
        1.0
      ],
      "min": [
        -0.9999955892562866,
        -0.9999716877937317,
        -0.9998611807823181
      ],
      "type": "VEC3"
    },
    {
      "bufferView": 1,
      "byteOffset": 1048512,
      "componentType": 5126,
      "count": 65532,
      "max": [
        0.999530553817749,
        0.9995408058166504
      ],
      "min": [
        0.0006467419443652034,
        0.0016985057154670358
      ],
      "type": "VEC2"
    },
    {
      "bufferView": 0,
      "byteOffset": 2538912,
      "componentType": 5125,
      "count": 302094,
      "type": "SCALAR"
    },
    {
      "bufferView": 2,
      "byteOffset": 4718304,
      "componentType": 5126,
      "count": 65532,
      "max": [
        9.680211067199707,
        66.37003326416016,
        -19.645265579223633
      ],
      "min": [
        -54.10029602050781,
        4.544774532318115,
        -23.840248107910156
      ],
      "type": "VEC3"
    },
    {
      "bufferView": 2,
      "byteOffset": 5504688,
      "componentType": 5126,
      "count": 65532,
      "max": [
        0.9999856948852539,
        0.9992351531982422,
        1.0
      ],
      "min": [
        -0.9999906420707703,
        -0.9999954104423523,
        -0.9988095164299011
      ],
      "type": "VEC3"
    },
    {
      "bufferView": 1,
      "byteOffset": 1572768,
      "componentType": 5126,
      "count": 65532,
      "max": [
        0.9995461702346802,
        0.9995450973510742
      ],
      "min": [
        0.00045311343274079263,
        0.00045311625581234694
      ],
      "type": "VEC2"
    },
    {
      "bufferView": 0,
      "byteOffset": 3747288,
      "componentType": 5125,
      "count": 286212,
      "type": "SCALAR"
    },
    {
      "bufferView": 2,
      "byteOffset": 6291072,
      "componentType": 5126,
      "count": 65532,
      "max": [
        7.8777899742126465,
        72.15731048583984,
        -20.415189743041992
      ],
      "min": [
        -55.96533966064453,
        2.6306495666503906,
        -23.705257415771484
      ],
      "type": "VEC3"
    },
    {
      "bufferView": 2,
      "byteOffset": 7077456,
      "componentType": 5126,
      "count": 65532,
      "max": [
        0.9996681809425354,
        0.9996649026870728,
        1.0
      ],
      "min": [
        -0.9996351599693298,
        -0.9996758103370667,
        -0.9987457990646362
      ],
      "type": "VEC3"
    },
    {
      "bufferView": 1,
      "byteOffset": 2097024,
      "componentType": 5126,
      "count": 65532,
      "max": [
        0.9995455741882324,
        0.9995439052581787
      ],
      "min": [
        0.00045311343274079263,
        0.00045311625581234694
      ],
      "type": "VEC2"
    },
    {
      "bufferView": 0,
      "byteOffset": 4892136,
      "componentType": 5125,
      "count": 289158,
      "type": "SCALAR"
    },
    {
      "bufferView": 2,
      "byteOffset": 7863840,
      "componentType": 5126,
      "count": 65533,
      "max": [
        10.586996078491211,
        73.1921615600586,
        -19.645265579223633
      ],
      "min": [
        -55.7591552734375,
        2.7232351303100586,
        -23.927907943725586
      ],
      "type": "VEC3"
    },
    {
      "bufferView": 2,
      "byteOffset": 8650236,
      "componentType": 5126,
      "count": 65533,
      "max": [
        0.9999513030052185,
        0.999932587146759,
        1.0
      ],
      "min": [
        -0.999995768070221,
        -0.9999954104423523,
        -0.9999203085899353
      ],
      "type": "VEC3"
    },
    {
      "bufferView": 1,
      "byteOffset": 2621280,
      "componentType": 5126,
      "count": 65533,
      "max": [
        0.9995452165603638,
        0.9995450973510742
      ],
      "min": [
        0.00045311343274079263,
        0.0016454627038910985
      ],
      "type": "VEC2"
    },
    {
      "bufferView": 0,
      "byteOffset": 6048768,
      "componentType": 5125,
      "count": 255327,
      "type": "SCALAR"
    },
    {
      "bufferView": 2,
      "byteOffset": 9436632,
      "componentType": 5126,
      "count": 65532,
      "max": [
        10.749068260192871,
        72.34752655029297,
        -20.520944595336914
      ],
      "min": [
        -55.832183837890625,
        2.8351519107818604,
        -24.002290725708008
      ],
      "type": "VEC3"
    },
    {
      "bufferView": 2,
      "byteOffset": 10223016,
      "componentType": 5126,
      "count": 65532,
      "max": [
        0.9998986124992371,
        0.999967098236084,
        0.9999998807907104
      ],
      "min": [
        -0.999972939491272,
        -0.9998112320899963,
        -0.9990174174308777
      ],
      "type": "VEC3"
    },
    {
      "bufferView": 1,
      "byteOffset": 3145544,
      "componentType": 5126,
      "count": 65532,
      "max": [
        0.9995421767234802,
        0.9995452165603638
      ],
      "min": [
        0.00117079250048846,
        0.00045311625581234694
      ],
      "type": "VEC2"
    },
    {
      "bufferView": 0,
      "byteOffset": 7070076,
      "componentType": 5125,
      "count": 272076,
      "type": "SCALAR"
    },
    {
      "bufferView": 2,
      "byteOffset": 11009400,
      "componentType": 5126,
      "count": 65532,
      "max": [
        10.776737213134766,
        67.04785919189453,
        -20.693710327148438
      ],
      "min": [
        -48.587066650390625,
        3.2960286140441895,
        -23.935546875
      ],
      "type": "VEC3"
    },
    {
      "bufferView": 2,
      "byteOffset": 11795784,
      "componentType": 5126,
      "count": 65532,
      "max": [
        0.9999992847442627,
        0.9999913573265076,
        0.9999998807907104
      ],
      "min": [
        -0.9999966621398926,
        -0.9999954104423523,
        -0.9998135566711426
      ],
      "type": "VEC3"
    },
    {
      "bufferView": 1,
      "byteOffset": 3669800,
      "componentType": 5126,
      "count": 65532,
      "max": [
        0.9995432496070862,
        0.9995458126068115
      ],
      "min": [
        0.00045311343274079263,
        0.00045311625581234694
      ],
      "type": "VEC2"
    },
    {
      "bufferView": 0,
      "byteOffset": 8158380,
      "componentType": 5125,
      "count": 292428,
      "type": "SCALAR"
    },
    {
      "bufferView": 2,
      "byteOffset": 12582168,
      "componentType": 5126,
      "count": 65532,
      "max": [
        8.554619789123535,
        65.46453094482422,
        -20.43541717529297
      ],
      "min": [
        -47.63089370727539,
        8.451821327209473,
        -24.13982391357422
      ],
      "type": "VEC3"
    },
    {
      "bufferView": 2,
      "byteOffset": 13368552,
      "componentType": 5126,
      "count": 65532,
      "max": [
        0.9998918175697327,
        0.9999240040779114,
        0.9999999403953552
      ],
      "min": [
        -0.9999966621398926,
        -0.9999288320541382,
        -0.9999432563781738
      ],
      "type": "VEC3"
    },
    {
      "bufferView": 1,
      "byteOffset": 4194056,
      "componentType": 5126,
      "count": 65532,
      "max": [
        0.9995419979095459,
        0.999542772769928
      ],
      "min": [
        0.005684881936758757,
        0.00045311625581234694
      ],
      "type": "VEC2"
    },
    {
      "bufferView": 0,
      "byteOffset": 9328092,
      "componentType": 5125,
      "count": 293802,
      "type": "SCALAR"
    },
    {
      "bufferView": 2,
      "byteOffset": 14154936,
      "componentType": 5126,
      "count": 65533,
      "max": [
        10.643621444702148,
        65.4651870727539,
        -19.645265579223633
      ],
      "min": [
        -47.634639739990234,
        9.581414222717285,
        -24.156023025512695
      ],
      "type": "VEC3"
    },
    {
      "bufferView": 2,
      "byteOffset": 14941332,
      "componentType": 5126,
      "count": 65533,
      "max": [
        0.9999762177467346,
        0.9999913573265076,
        0.9999998807907104
      ],
      "min": [
        -0.9999032616615295,
        -0.9998913407325745,
        -0.9999858736991882
      ],
      "type": "VEC3"
    },
    {
      "bufferView": 1,
      "byteOffset": 4718312,
      "componentType": 5126,
      "count": 65533,
      "max": [
        0.9995458722114563,
        0.9995461702346802
      ],
      "min": [
        0.014365475624799728,
        0.0010698598343878984
      ],
      "type": "VEC2"
    },
    {
      "bufferView": 0,
      "byteOffset": 10503300,
      "componentType": 5125,
      "count": 204540,
      "type": "SCALAR"
    },
    {
      "bufferView": 2,
      "byteOffset": 15727728,
      "componentType": 5126,
      "count": 54158,
      "max": [
        10.776737213134766,
        72.35826873779297,
        -20.453176498413086
      ],
      "min": [
        -54.06925582885742,
        3.3524577617645264,
        -23.842039108276367
      ],
      "type": "VEC3"
    },
    {
      "bufferView": 2,
      "byteOffset": 16377624,
      "componentType": 5126,
      "count": 54158,
      "max": [
        0.9998197555541992,
        0.9999950528144836,
        1.0
      ],
      "min": [
        -0.9998878240585327,
        -0.999946117401123,
        -0.9999082088470459
      ],
      "type": "VEC3"
    },
    {
      "bufferView": 1,
      "byteOffset": 5242576,
      "componentType": 5126,
      "count": 54158,
      "max": [
        0.9995467662811279,
        0.9995458722114563
      ],
      "min": [
        0.0021989643573760986,
        0.0013837299775332212
      ],
      "type": "VEC2"
    },
    {
      "bufferView": 0,
      "byteOffset": 11321460,
      "componentType": 5125,
      "count": 169635,
      "type": "SCALAR"
    }
  ],
  "asset": {
    "extras": {
      "author": "CT Aerial Surveys (https://sketchfab.com/CTAerialSurveys)",
      "license": "CC-BY-4.0 (http://creativecommons.org/licenses/by/4.0/)",
      "source": "https://sketchfab.com/3d-models/castlerigg-stone-circle-24d0505953904a0a927a17e06d78a435",
      "title": "Castlerigg Stone Circle"
    },
    "generator": "Sketchfab-12.67.0",
    "version": "2.0"
  },
  "bufferViews": [
    {
      "buffer": 0,
      "byteLength": 12000000,
      "name": "floatBufferViews",
      "target": 34963
    },
    {
      "buffer": 0,
      "byteLength": 5675840,
      "byteOffset": 12000000,
      "byteStride": 8,
      "name": "floatBufferViews",
      "target": 34962
    },
    {
      "buffer": 0,
      "byteLength": 17027520,
      "byteOffset": 17675840,
      "byteStride": 12,
      "name": "floatBufferViews",
      "target": 34962
    }
  ],
  "buffers": [
    {
      "byteLength": 34703360,
      "uri": "scene.bin"
    }
  ],
  "extensionsUsed": [
    "KHR_materials_unlit"
  ],
  "images": [
    {
      "uri": "textures/texture_material_baseColor.jpeg"
    }
  ],
  "materials": [
    {
      "doubleSided": true,
      "extensions": {
        "KHR_materials_unlit": {}
      },
      "name": "texture_material",
      "pbrMetallicRoughness": {
        "baseColorTexture": {
          "index": 0
        },
        "metallicFactor": 0.0
      }
    }
  ],
  "meshes": [
    {
      "name": "mesh_out_node_texture_material_0",
      "primitives": [
        {
          "attributes": {
            "NORMAL": 1,
            "POSITION": 0,
            "TEXCOORD_0": 2
          },
          "indices": 3,
          "material": 0,
          "mode": 4
        }
      ]
    },
    {
      "name": "mesh_out_node_texture_material_0",
      "primitives": [
        {
          "attributes": {
            "NORMAL": 5,
            "POSITION": 4,
            "TEXCOORD_0": 6
          },
          "indices": 7,
          "material": 0,
          "mode": 4
        }
      ]
    },
    {
      "name": "mesh_out_node_texture_material_0",
      "primitives": [
        {
          "attributes": {
            "NORMAL": 9,
            "POSITION": 8,
            "TEXCOORD_0": 10
          },
          "indices": 11,
          "material": 0,
          "mode": 4
        }
      ]
    },
    {
      "name": "mesh_out_node_texture_material_0",
      "primitives": [
        {
          "attributes": {
            "NORMAL": 13,
            "POSITION": 12,
            "TEXCOORD_0": 14
          },
          "indices": 15,
          "material": 0,
          "mode": 4
        }
      ]
    },
    {
      "name": "mesh_out_node_texture_material_0",
      "primitives": [
        {
          "attributes": {
            "NORMAL": 17,
            "POSITION": 16,
            "TEXCOORD_0": 18
          },
          "indices": 19,
          "material": 0,
          "mode": 4
        }
      ]
    },
    {
      "name": "mesh_out_node_texture_material_0",
      "primitives": [
        {
          "attributes": {
            "NORMAL": 21,
            "POSITION": 20,
            "TEXCOORD_0": 22
          },
          "indices": 23,
          "material": 0,
          "mode": 4
        }
      ]
    },
    {
      "name": "mesh_out_node_texture_material_0",
      "primitives": [
        {
          "attributes": {
            "NORMAL": 25,
            "POSITION": 24,
            "TEXCOORD_0": 26
          },
          "indices": 27,
          "material": 0,
          "mode": 4
        }
      ]
    },
    {
      "name": "mesh_out_node_texture_material_0",
      "primitives": [
        {
          "attributes": {
            "NORMAL": 29,
            "POSITION": 28,
            "TEXCOORD_0": 30
          },
          "indices": 31,
          "material": 0,
          "mode": 4
        }
      ]
    },
    {
      "name": "mesh_out_node_texture_material_0",
      "primitives": [
        {
          "attributes": {
            "NORMAL": 33,
            "POSITION": 32,
            "TEXCOORD_0": 34
          },
          "indices": 35,
          "material": 0,
          "mode": 4
        }
      ]
    },
    {
      "name": "mesh_out_node_texture_material_0",
      "primitives": [
        {
          "attributes": {
            "NORMAL": 37,
            "POSITION": 36,
            "TEXCOORD_0": 38
          },
          "indices": 39,
          "material": 0,
          "mode": 4
        }
      ]
    },
    {
      "name": "mesh_out_node_texture_material_0",
      "primitives": [
        {
          "attributes": {
            "NORMAL": 41,
            "POSITION": 40,
            "TEXCOORD_0": 42
          },
          "indices": 43,
          "material": 0,
          "mode": 4
        }
      ]
    }
  ],
  "nodes": [
    {
      "children": [
        1
      ],
      "matrix": [
        3.440990006932403e-16,
        4.397219938974056e-17,
        0.7510591745376587,
        0.0,
        -0.7510442224881473,
        0.004741493831714072,
        3.2402837317351535e-16,
        0.0,
        -0.004741493831714072,
        -0.7510442224881473,
        4.6255559380024055e-17,
        0.0,
        -60.390506744384766,
        44.04029846191405,
        60.52952194213868,
        1.0
      ],
      "name": "Sketchfab_model"
    },
    {
      "children": [
        2
      ],
      "matrix": [
        1.0,
        0.0,
        0.0,
        0.0,
        0.0,
        -1.0,
        0.0,
        0.0,
        0.0,
        0.0,
        -1.0,
        0.0,
        0.0,
        0.0,
        0.0,
        1.0
      ],
      "name": "bf17b9b703224437a5325e05bc81784c.fbx"
    },
    {
      "children": [
        3
      ],
      "name": "RootNode"
    },
    {
      "children": [
        4,
        5,
        6,
        7,
        8,
        9,
        10,
        11,
        12,
        13,
        14
      ],
      "name": "mesh_out_node"
    },
    {
      "mesh": 0,
      "name": "mesh_out_node_texture_material_0"
    },
    {
      "mesh": 1,
      "name": "mesh_out_node_texture_material_0"
    },
    {
      "mesh": 2,
      "name": "mesh_out_node_texture_material_0"
    },
    {
      "mesh": 3,
      "name": "mesh_out_node_texture_material_0"
    },
    {
      "mesh": 4,
      "name": "mesh_out_node_texture_material_0"
    },
    {
      "mesh": 5,
      "name": "mesh_out_node_texture_material_0"
    },
    {
      "mesh": 6,
      "name": "mesh_out_node_texture_material_0"
    },
    {
      "mesh": 7,
      "name": "mesh_out_node_texture_material_0"
    },
    {
      "mesh": 8,
      "name": "mesh_out_node_texture_material_0"
    },
    {
      "mesh": 9,
      "name": "mesh_out_node_texture_material_0"
    },
    {
      "mesh": 10,
      "name": "mesh_out_node_texture_material_0"
    }
  ],
  "samplers": [
    {
      "magFilter": 9729,
      "minFilter": 9987,
      "wrapS": 10497,
      "wrapT": 10497
    }
  ],
  "scene": 0,
  "scenes": [
    {
      "name": "Sketchfab_Scene",
      "nodes": [
        0
      ]
    }
  ],
  "textures": [
    {
      "sampler": 0,
      "source": 0
    }
  ]
}
