{
  "accessors": [
    {
      "bufferView": 2,
      "componentType": 5126,
      "count": 4964,
      "max": [
        -9.709223747253418,
        119.71176147460938,
        -25.785629272460938
      ],
      "min": [
        -189.38507080078125,
        42.23820114135742,
        -109.92721557617188
      ],
      "type": "VEC3"
    },
    {
      "bufferView": 2,
      "byteOffset": 59568,
      "componentType": 5126,
      "count": 4964,
      "max": [
        1.0,
        0.999969482421875,
        0.9999729990959167
      ],
      "min": [
        -1.0,
        -0.9999695420265198,
        -0.9999729990959167
      ],
      "type": "VEC3"
    },
    {
      "bufferView": 3,
      "componentType": 5126,
      "count": 4964,
      "max": [
        1.0,
        0.9999898076057434,
        0.9999930262565613,
        1.0
      ],
      "min": [
        -1.0,
        -0.9999730587005615,
        -0.9999954104423523,
        -1.0
      ],
      "type": "VEC4"
    },
    {
      "bufferView": 1,
      "componentType": 5126,
      "count": 4964,
      "max": [
        0.990234375,
        0.9980079531669617
      ],
      "min": [
        -1.9308450394106558e-09,
        -1.4668331438372206e-08
      ],
      "type": "VEC2"
    },
    {
      "bufferView": 1,
      "byteOffset": 39712,
      "componentType": 5126,
      "count": 4964,
      "max": [
        0.990234375,
        0.9980079531669617
      ],
      "min": [
        -1.9308450394106558e-09,
        -1.4668331438372206e-08
      ],
      "type": "VEC2"
    },
    {
      "bufferView": 1,
      "byteOffset": 79424,
      "componentType": 5126,
      "count": 4964,
      "max": [
        0.990234375,
        0.9980079531669617
      ],
      "min": [
        -1.9308450394106558e-09,
        -1.4668331438372206e-08
      ],
      "type": "VEC2"
    },
    {
      "bufferView": 1,
      "byteOffset": 119136,
      "componentType": 5126,
      "count": 4964,
      "max": [
        0.990234375,
        0.9980079531669617
      ],
      "min": [
        -1.9308450394106558e-09,
        -1.4668331438372206e-08
      ],
      "type": "VEC2"
    },
    {
      "bufferView": 1,
      "byteOffset": 158848,
      "componentType": 5126,
      "count": 4964,
      "max": [
        0.990234375,
        0.9980079531669617
      ],
      "min": [
        -1.9308450394106558e-09,
        -1.4668331438372206e-08
      ],
      "type": "VEC2"
    },
    {
      "bufferView": 0,
      "componentType": 5125,
      "count": 9504,
      "type": "SCALAR"
    }
  ],
  "asset": {
    "extras": {
      "author": "José Castanheira (https://sketchfab.com/JoseCasta)",
      "license": "CC-BY-4.0 (http://creativecommons.org/licenses/by/4.0/)",
      "source": "https://sketchfab.com/3d-models/old-wooden-cart-395ec8747038411684f9aebe6aa55501",
      "title": "Old Wooden Cart"
    },
    "generator": "Sketchfab-12.67.0",
    "version": "2.0"
  },
  "bufferViews": [
    {
      "buffer": 0,
      "byteLength": 38016,
      "name": "floatBufferViews",
      "target": 34963
    },
    {
      "buffer": 0,
      "byteLength": 198560,
      "byteOffset": 38016,
      "byteStride": 8,
      "name": "floatBufferViews",
      "target": 34962
    },
    {
      "buffer": 0,
      "byteLength": 119136,
      "byteOffset": 236576,
      "byteStride": 12,
      "name": "floatBufferViews",
      "target": 34962
    },
    {
      "buffer": 0,
      "byteLength": 79424,
      "byteOffset": 355712,
      "byteStride": 16,
      "name": "floatBufferViews",
      "target": 34962
    }
  ],
  "buffers": [
    {
      "byteLength": 435136,
      "uri": "scene.bin"
    }
  ],
  "images": [
    {
      "uri": "textures/TableMat_baseColor.png"
    },
    {
      "uri": "textures/TableMat_metallicRoughness.png"
    },
    {
      "uri": "textures/TableMat_normal.png"
    }
  ],
  "materials": [
    {
      "doubleSided": true,
      "name": "TableMat",
      "normalTexture": {
        "index": 2
      },
      "occlusionTexture": {
        "index": 1
      },
      "pbrMetallicRoughness": {
        "baseColorTexture": {
          "index": 0
        },
        "metallicRoughnessTexture": {
          "index": 1
        }
      }
    }
  ],
  "meshes": [
    {
      "name": "polySurface44_TableMat_0",
      "primitives": [
        {
          "attributes": {
            "NORMAL": 1,
            "POSITION": 0,
            "TANGENT": 2,
            "TEXCOORD_0": 3,
            "TEXCOORD_1": 4,
            "TEXCOORD_2": 5,
            "TEXCOORD_3": 6,
            "TEXCOORD_4": 7
          },
          "indices": 8,
          "material": 0,
          "mode": 4
        }
      ]
    }
  ],
  "nodes": [
    {
      "children": [
        1
      ],
      "matrix": [
        1.0,
        0.0,
        0.0,
        0.0,
        0.0,
        2.220446049250313e-16,
        -1.0,
        0.0,
        0.0,
        1.0,
        2.220446049250313e-16,
        0.0,
        0.0,
        0.0,
        0.0,
        1.0
      ],
      "name": "Sketchfab_model"
    },
    {
      "children": [
        2
      ],
      "matrix": [
        1.0,
        0.0,
        0.0,
        0.0,
        0.0,
        0.0,
        1.0,
        0.0,
        0.0,
        -1.0,
        0.0,
        0.0,
        0.0,
        0.0,
        0.0,
        1.0
      ],
      "name": "4888da8c9cdd430fbc9b279b20acca2a.fbx"
    },
    {
      "children": [
        3
      ],
      "name": "RootNode"
    },
    {
      "children": [
        4
      ],
      "matrix": [
        1.0,
        0.0,
        0.0,
        0.0,
        0.0,
        1.0,
        0.0,
        0.0,
        0.0,
        0.0,
        1.0,
        0.0,
        100.21037292480469,
        -42.23820114135742,
        68.92582702636719,
        1.0
      ],
      "name": "polySurface44"
    },
    {
      "mesh": 0,
      "name": "polySurface44_TableMat_0"
    }
  ],
  "samplers": [
    {
      "magFilter": 9729,
      "minFilter": 9987,
      "wrapS": 10497,
      "wrapT": 10497
    }
  ],
  "scene": 0,
  "scenes": [
    {
      "name": "Sketchfab_Scene",
      "nodes": [
        0
      ]
    }
  ],
  "textures": [
    {
      "sampler": 0,
      "source": 0
    },
    {
      "sampler": 0,
      "source": 1
    },
    {
      "sampler": 0,
      "source": 2
    }
  ]
}
