{
  "accessors": [
    {
      "bufferView": 2,
      "componentType": 5126,
      "count": 36856,
      "max": [
        0.7654971480369568,
        0.2234455943107605,
        0.12603773176670074
      ],
      "min": [
        -0.7660128474235535,
        -0.03673116862773895,
        -0.4048477113246918
      ],
      "type": "VEC3"
    },
    {
      "bufferView": 2,
      "byteOffset": 442272,
      "componentType": 5126,
      "count": 36856,
      "max": [
        0.999984860420227,
        1.0,
        0.9999760389328003
      ],
      "min": [
        -0.999984860420227,
        -1.0,
        -0.9999855756759644
      ],
      "type": "VEC3"
    },
    {
      "bufferView": 1,
      "componentType": 5126,
      "count": 36856,
      "max": [
        1.0046466588974,
        1.0000001192092896
      ],
      "min": [
        -0.005641703959554434,
        -0.009142685681581497
      ],
      "type": "VEC2"
    },
    {
      "bufferView": 1,
      "byteOffset": 294848,
      "componentType": 5126,
      "count": 36856,
      "max": [
        1.0046466588974,
        1.0000001192092896
      ],
      "min": [
        -0.005641703959554434,
        -0.009142685681581497
      ],
      "type": "VEC2"
    },
    {
      "bufferView": 1,
      "byteOffset": 589696,
      "componentType": 5126,
      "count": 36856,
      "max": [
        1.0046466588974,
        1.0000001192092896
      ],
      "min": [
        -0.005641703959554434,
        -0.009142685681581497
      ],
      "type": "VEC2"
    },
    {
      "bufferView": 0,
      "componentType": 5125,
      "count": 185376,
      "type": "SCALAR"
    },
    {
      "bufferView": 2,
      "byteOffset": 884544,
      "componentType": 5126,
      "count": 534,
      "max": [
        0.5176833271980286,
        0.039488229900598526,
        0.07775218784809113
      ],
      "min": [
        -0.5176833271980286,
        -0.03948799893260002,
        -4.523605823516846
      ],
      "type": "VEC3"
    },
    {
      "bufferView": 2,
      "byteOffset": 890952,
      "componentType": 5126,
      "count": 534,
      "max": [
        1.0,
        0.7073705792427063,
        1.0
      ],
      "min": [
        -1.0,
        -0.707298755645752,
        -1.0
      ],
      "type": "VEC3"
    },
    {
      "bufferView": 1,
      "byteOffset": 884544,
      "componentType": 5126,
      "count": 534,
      "max": [
        0.875,
        0.9832900166511536
      ],
      "min": [
        0.2559398412704468,
        0.26670998334884644
      ],
      "type": "VEC2"
    },
    {
      "bufferView": 1,
      "byteOffset": 888816,
      "componentType": 5126,
      "count": 534,
      "max": [
        0.875,
        0.9832900166511536
      ],
      "min": [
        0.2559398412704468,
        0.26670998334884644
      ],
      "type": "VEC2"
    },
    {
      "bufferView": 1,
      "byteOffset": 893088,
      "componentType": 5126,
      "count": 534,
      "max": [
        0.875,
        0.9832900166511536
      ],
      "min": [
        0.2559398412704468,
        0.26670998334884644
      ],
      "type": "VEC2"
    },
    {
      "bufferView": 0,
      "byteOffset": 741504,
      "componentType": 5125,
      "count": 804,
      "type": "SCALAR"
    },
    {
      "bufferView": 2,
      "byteOffset": 897360,
      "componentType": 5126,
      "count": 36864,
      "max": [
        0.7654971480369568,
        0.09187735617160797,
        0.12714789807796478
      ],
      "min": [
        -0.7649810910224915,
        -0.03673116862773895,
        -0.4048480689525604
      ],
      "type": "VEC3"
    },
    {
      "bufferView": 2,
      "byteOffset": 1339728,
      "componentType": 5126,
      "count": 36864,
      "max": [
        0.999984860420227,
        1.0,
        0.9999338388442993
      ],
      "min": [
        -0.999984860420227,
        -1.0,
        -0.9999828338623047
      ],
      "type": "VEC3"
    },
    {
      "bufferView": 1,
      "byteOffset": 897360,
      "componentType": 5126,
      "count": 36864,
      "max": [
        1.0046466588974,
        1.0000001192092896
      ],
      "min": [
        -0.005641703959554434,
        -0.009142685681581497
      ],
      "type": "VEC2"
    },
    {
      "bufferView": 1,
      "byteOffset": 1192272,
      "componentType": 5126,
      "count": 36864,
      "max": [
        1.0046466588974,
        1.0000001192092896
      ],
      "min": [
        -0.005641703959554434,
        -0.009142685681581497
      ],
      "type": "VEC2"
    },
    {
      "bufferView": 1,
      "byteOffset": 1487184,
      "componentType": 5126,
      "count": 36864,
      "max": [
        1.0046466588974,
        1.0000001192092896
      ],
      "min": [
        -0.005641703959554434,
        -0.009142685681581497
      ],
      "type": "VEC2"
    },
    {
      "bufferView": 0,
      "byteOffset": 744720,
      "componentType": 5125,
      "count": 185376,
      "type": "SCALAR"
    },
    {
      "bufferView": 2,
      "byteOffset": 1782096,
      "componentType": 5126,
      "count": 384,
      "max": [
        0.0044256821274757385,
        0.18000075221061707,
        0.004425541963428259
      ],
      "min": [
        -0.684213399887085,
        -0.023923441767692566,
        -0.6842136383056641
      ],
      "type": "VEC3"
    },
    {
      "bufferView": 2,
      "byteOffset": 1786704,
      "componentType": 5126,
      "count": 384,
      "max": [
        1.0,
        1.0,
        1.0
      ],
      "min": [
        -1.0,
        -1.0,
        -1.0
      ],
      "type": "VEC3"
    },
    {
      "bufferView": 1,
      "byteOffset": 1782096,
      "componentType": 5126,
      "count": 384,
      "max": [
        0.875,
        1.0
      ],
      "min": [
        0.125,
        0.0
      ],
      "type": "VEC2"
    },
    {
      "bufferView": 1,
      "byteOffset": 1785168,
      "componentType": 5126,
      "count": 384,
      "max": [
        0.875,
        1.0
      ],
      "min": [
        0.125,
        0.0
      ],
      "type": "VEC2"
    },
    {
      "bufferView": 1,
      "byteOffset": 1788240,
      "componentType": 5126,
      "count": 384,
      "max": [
        0.875,
        1.0
      ],
      "min": [
        0.125,
        0.0
      ],
      "type": "VEC2"
    },
    {
      "bufferView": 0,
      "byteOffset": 1486224,
      "componentType": 5125,
      "count": 528,
      "type": "SCALAR"
    },
    {
      "bufferView": 2,
      "byteOffset": 1791312,
      "componentType": 5126,
      "count": 192,
      "max": [
        0.013048992492258549,
        0.10460469126701355,
        0.01304857898503542
      ],
      "min": [
        -0.5329123139381409,
        -0.10460464656352997,
        -0.5329127311706543
      ],
      "type": "VEC3"
    },
    {
      "bufferView": 2,
      "byteOffset": 1793616,
      "componentType": 5126,
      "count": 192,
      "max": [
        1.0,
        1.0,
        1.0
      ],
      "min": [
        -1.0,
        -1.0,
        -1.0
      ],
      "type": "VEC3"
    },
    {
      "bufferView": 1,
      "byteOffset": 1791312,
      "componentType": 5126,
      "count": 192,
      "max": [
        0.875,
        1.0
      ],
      "min": [
        0.125,
        0.0
      ],
      "type": "VEC2"
    },
    {
      "bufferView": 1,
      "byteOffset": 1792848,
      "componentType": 5126,
      "count": 192,
      "max": [
        0.875,
        1.0
      ],
      "min": [
        0.125,
        0.0
      ],
      "type": "VEC2"
    },
    {
      "bufferView": 1,
      "byteOffset": 1794384,
      "componentType": 5126,
      "count": 192,
      "max": [
        0.875,
        1.0
      ],
      "min": [
        0.125,
        0.0
      ],
      "type": "VEC2"
    },
    {
      "bufferView": 0,
      "byteOffset": 1488336,
      "componentType": 5125,
      "count": 264,
      "type": "SCALAR"
    },
    {
      "bufferView": 2,
      "byteOffset": 1795920,
      "componentType": 5126,
      "count": 9850,
      "max": [
        0.5000000596046448,
        0.0019345222972333431,
        0.04530573636293411
      ],
      "min": [
        -0.5000000596046448,
        -1.996464729309082,
        -0.19038259983062744
      ],
      "type": "VEC3"
    },
    {
      "bufferView": 2,
      "byteOffset": 1914120,
      "componentType": 5126,
      "count": 9850,
      "max": [
        1.0,
        1.0,
        0.9999983906745911
      ],
      "min": [
        -1.0,
        -1.0,
        -0.9999983906745911
      ],
      "type": "VEC3"
    },
    {
      "bufferView": 3,
      "componentType": 5126,
      "count": 9850,
      "max": [
        1.0,
        0.9672597050666809,
        1.0,
        1.0
      ],
      "min": [
        -0.953339159488678,
        -0.9654872417449951,
        -1.0,
        -1.0
      ],
      "type": "VEC4"
    },
    {
      "bufferView": 1,
      "byteOffset": 1795920,
      "componentType": 5126,
      "count": 9850,
      "max": [
        0.7470017075538635,
        0.9844318628311157
      ],
      "min": [
        0.25306418538093567,
        0.021138837561011314
      ],
      "type": "VEC2"
    },
    {
      "bufferView": 1,
      "byteOffset": 1874720,
      "componentType": 5126,
      "count": 9850,
      "max": [
        0.7470017075538635,
        0.9844318628311157
      ],
      "min": [
        0.25306418538093567,
        0.021138837561011314
      ],
      "type": "VEC2"
    },
    {
      "bufferView": 1,
      "byteOffset": 1953520,
      "componentType": 5126,
      "count": 9850,
      "max": [
        0.7470017075538635,
        0.9844318628311157
      ],
      "min": [
        0.25306418538093567,
        0.021138837561011314
      ],
      "type": "VEC2"
    },
    {
      "bufferView": 0,
      "byteOffset": 1489392,
      "componentType": 5125,
      "count": 48768,
      "type": "SCALAR"
    },
    {
      "bufferView": 2,
      "byteOffset": 2032320,
      "componentType": 5126,
      "count": 36856,
      "max": [
        0.7654971480369568,
        0.2234455943107605,
        0.12603773176670074
      ],
      "min": [
        -0.7660128474235535,
        -0.03673116862773895,
        -0.4048477113246918
      ],
      "type": "VEC3"
    },
    {
      "bufferView": 2,
      "byteOffset": 2474592,
      "componentType": 5126,
      "count": 36856,
      "max": [
        0.999984860420227,
        1.0,
        0.9999760389328003
      ],
      "min": [
        -0.999984860420227,
        -1.0,
        -0.9999855756759644
      ],
      "type": "VEC3"
    },
    {
      "bufferView": 1,
      "byteOffset": 2032320,
      "componentType": 5126,
      "count": 36856,
      "max": [
        1.0046466588974,
        1.0000001192092896
      ],
      "min": [
        -0.005641703959554434,
        -0.009142685681581497
      ],
      "type": "VEC2"
    },
    {
      "bufferView": 1,
      "byteOffset": 2327168,
      "componentType": 5126,
      "count": 36856,
      "max": [
        1.0046466588974,
        1.0000001192092896
      ],
      "min": [
        -0.005641703959554434,
        -0.009142685681581497
      ],
      "type": "VEC2"
    },
    {
      "bufferView": 1,
      "byteOffset": 2622016,
      "componentType": 5126,
      "count": 36856,
      "max": [
        1.0046466588974,
        1.0000001192092896
      ],
      "min": [
        -0.005641703959554434,
        -0.009142685681581497
      ],
      "type": "VEC2"
    },
    {
      "bufferView": 0,
      "byteOffset": 1684464,
      "componentType": 5125,
      "count": 185376,
      "type": "SCALAR"
    },
    {
      "bufferView": 2,
      "byteOffset": 2916864,
      "componentType": 5126,
      "count": 534,
      "max": [
        0.5176833271980286,
        0.039488229900598526,
        0.07775218784809113
      ],
      "min": [
        -0.5176833271980286,
        -0.03948799893260002,
        -4.523605823516846
      ],
      "type": "VEC3"
    },
    {
      "bufferView": 2,
      "byteOffset": 2923272,
      "componentType": 5126,
      "count": 534,
      "max": [
        1.0,
        0.7073705792427063,
        1.0
      ],
      "min": [
        -1.0,
        -0.707298755645752,
        -1.0
      ],
      "type": "VEC3"
    },
    {
      "bufferView": 1,
      "byteOffset": 2916864,
      "componentType": 5126,
      "count": 534,
      "max": [
        0.875,
        0.9832900166511536
      ],
      "min": [
        0.2559398412704468,
        0.26670998334884644
      ],
      "type": "VEC2"
    },
    {
      "bufferView": 1,
      "byteOffset": 2921136,
      "componentType": 5126,
      "count": 534,
      "max": [
        0.875,
        0.9832900166511536
      ],
      "min": [
        0.2559398412704468,
        0.26670998334884644
      ],
      "type": "VEC2"
    },
    {
      "bufferView": 1,
      "byteOffset": 2925408,
      "componentType": 5126,
      "count": 534,
      "max": [
        0.875,
        0.9832900166511536
      ],
      "min": [
        0.2559398412704468,
        0.26670998334884644
      ],
      "type": "VEC2"
    },
    {
      "bufferView": 0,
      "byteOffset": 2425968,
      "componentType": 5125,
      "count": 804,
      "type": "SCALAR"
    },
    {
      "bufferView": 2,
      "byteOffset": 2929680,
      "componentType": 5126,
      "count": 36864,
      "max": [
        0.7654971480369568,
        0.09187735617160797,
        0.12714789807796478
      ],
      "min": [
        -0.7649810910224915,
        -0.03673116862773895,
        -0.4048480689525604
      ],
      "type": "VEC3"
    },
    {
      "bufferView": 2,
      "byteOffset": 3372048,
      "componentType": 5126,
      "count": 36864,
      "max": [
        0.999984860420227,
        1.0,
        0.9999338388442993
      ],
      "min": [
        -0.999984860420227,
        -1.0,
        -0.9999828338623047
      ],
      "type": "VEC3"
    },
    {
      "bufferView": 1,
      "byteOffset": 2929680,
      "componentType": 5126,
      "count": 36864,
      "max": [
        1.0046466588974,
        1.0000001192092896
      ],
      "min": [
        -0.005641703959554434,
        -0.009142685681581497
      ],
      "type": "VEC2"
    },
    {
      "bufferView": 1,
      "byteOffset": 3224592,
      "componentType": 5126,
      "count": 36864,
      "max": [
        1.0046466588974,
        1.0000001192092896
      ],
      "min": [
        -0.005641703959554434,
        -0.009142685681581497
      ],
      "type": "VEC2"
    },
    {
      "bufferView": 1,
      "byteOffset": 3519504,
      "componentType": 5126,
      "count": 36864,
      "max": [
        1.0046466588974,
        1.0000001192092896
      ],
      "min": [
        -0.005641703959554434,
        -0.009142685681581497
      ],
      "type": "VEC2"
    },
    {
      "bufferView": 0,
      "byteOffset": 2429184,
      "componentType": 5125,
      "count": 185376,
      "type": "SCALAR"
    },
    {
      "bufferView": 2,
      "byteOffset": 3814416,
      "componentType": 5126,
      "count": 384,
      "max": [
        0.0044256821274757385,
        0.18000075221061707,
        0.004425541963428259
      ],
      "min": [
        -0.684213399887085,
        -0.023923441767692566,
        -0.6842136383056641
      ],
      "type": "VEC3"
    },
    {
      "bufferView": 2,
      "byteOffset": 3819024,
      "componentType": 5126,
      "count": 384,
      "max": [
        1.0,
        1.0,
        1.0
      ],
      "min": [
        -1.0,
        -1.0,
        -1.0
      ],
      "type": "VEC3"
    },
    {
      "bufferView": 1,
      "byteOffset": 3814416,
      "componentType": 5126,
      "count": 384,
      "max": [
        0.875,
        1.0
      ],
      "min": [
        0.125,
        0.0
      ],
      "type": "VEC2"
    },
    {
      "bufferView": 1,
      "byteOffset": 3817488,
      "componentType": 5126,
      "count": 384,
      "max": [
        0.875,
        1.0
      ],
      "min": [
        0.125,
        0.0
      ],
      "type": "VEC2"
    },
    {
      "bufferView": 1,
      "byteOffset": 3820560,
      "componentType": 5126,
      "count": 384,
      "max": [
        0.875,
        1.0
      ],
      "min": [
        0.125,
        0.0
      ],
      "type": "VEC2"
    },
    {
      "bufferView": 0,
      "byteOffset": 3170688,
      "componentType": 5125,
      "count": 528,
      "type": "SCALAR"
    },
    {
      "bufferView": 2,
      "byteOffset": 3823632,
      "componentType": 5126,
      "count": 192,
      "max": [
        0.013048992492258549,
        0.10460469126701355,
        0.01304857898503542
      ],
      "min": [
        -0.5329123139381409,
        -0.10460464656352997,
        -0.5329127311706543
      ],
      "type": "VEC3"
    },
    {
      "bufferView": 2,
      "byteOffset": 3825936,
      "componentType": 5126,
      "count": 192,
      "max": [
        1.0,
        1.0,
        1.0
      ],
      "min": [
        -1.0,
        -1.0,
        -1.0
      ],
      "type": "VEC3"
    },
    {
      "bufferView": 1,
      "byteOffset": 3823632,
      "componentType": 5126,
      "count": 192,
      "max": [
        0.875,
        1.0
      ],
      "min": [
        0.125,
        0.0
      ],
      "type": "VEC2"
    },
    {
      "bufferView": 1,
      "byteOffset": 3825168,
      "componentType": 5126,
      "count": 192,
      "max": [
        0.875,
        1.0
      ],
      "min": [
        0.125,
        0.0
      ],
      "type": "VEC2"
    },
    {
      "bufferView": 1,
      "byteOffset": 3826704,
      "componentType": 5126,
      "count": 192,
      "max": [
        0.875,
        1.0
      ],
      "min": [
        0.125,
        0.0
      ],
      "type": "VEC2"
    },
    {
      "bufferView": 0,
      "byteOffset": 3172800,
      "componentType": 5125,
      "count": 264,
      "type": "SCALAR"
    },
    {
      "bufferView": 2,
      "byteOffset": 3828240,
      "componentType": 5126,
      "count": 9850,
      "max": [
        0.5000000596046448,
        0.0019345222972333431,
        0.04530573636293411
      ],
      "min": [
        -0.5000000596046448,
        -1.996464729309082,
        -0.19038259983062744
      ],
      "type": "VEC3"
    },
    {
      "bufferView": 2,
      "byteOffset": 3946440,
      "componentType": 5126,
      "count": 9850,
      "max": [
        1.0,
        1.0,
        0.9999983906745911
      ],
      "min": [
        -1.0,
        -1.0,
        -0.9999983906745911
      ],
      "type": "VEC3"
    },
    {
      "bufferView": 3,
      "byteOffset": 157600,
      "componentType": 5126,
      "count": 9850,
      "max": [
        1.0,
        0.9672597050666809,
        1.0,
        1.0
      ],
      "min": [
        -0.953339159488678,
        -0.9654872417449951,
        -1.0,
        -1.0
      ],
      "type": "VEC4"
    },
    {
      "bufferView": 1,
      "byteOffset": 3828240,
      "componentType": 5126,
      "count": 9850,
      "max": [
        0.7470017075538635,
        0.9844318628311157
      ],
      "min": [
        0.25306418538093567,
        0.021138837561011314
      ],
      "type": "VEC2"
    },
    {
      "bufferView": 1,
      "byteOffset": 3907040,
      "componentType": 5126,
      "count": 9850,
      "max": [
        0.7470017075538635,
        0.9844318628311157
      ],
      "min": [
        0.25306418538093567,
        0.021138837561011314
      ],
      "type": "VEC2"
    },
    {
      "bufferView": 1,
      "byteOffset": 3985840,
      "componentType": 5126,
      "count": 9850,
      "max": [
        0.7470017075538635,
        0.9844318628311157
      ],
      "min": [
        0.25306418538093567,
        0.021138837561011314
      ],
      "type": "VEC2"
    },
    {
      "bufferView": 0,
      "byteOffset": 3173856,
      "componentType": 5125,
      "count": 48768,
      "type": "SCALAR"
    },
    {
      "bufferView": 2,
      "byteOffset": 4064640,
      "componentType": 5126,
      "count": 36856,
      "max": [
        0.7654971480369568,
        0.2234455943107605,
        0.12603773176670074
      ],
      "min": [
        -0.7660128474235535,
        -0.03673116862773895,
        -0.4048477113246918
      ],
      "type": "VEC3"
    },
    {
      "bufferView": 2,
      "byteOffset": 4506912,
      "componentType": 5126,
      "count": 36856,
      "max": [
        0.999984860420227,
        1.0,
        0.9999760389328003
      ],
      "min": [
        -0.999984860420227,
        -1.0,
        -0.9999855756759644
      ],
      "type": "VEC3"
    },
    {
      "bufferView": 1,
      "byteOffset": 4064640,
      "componentType": 5126,
      "count": 36856,
      "max": [
        1.0046466588974,
        1.0000001192092896
      ],
      "min": [
        -0.005641703959554434,
        -0.009142685681581497
      ],
      "type": "VEC2"
    },
    {
      "bufferView": 1,
      "byteOffset": 4359488,
      "componentType": 5126,
      "count": 36856,
      "max": [
        1.0046466588974,
        1.0000001192092896
      ],
      "min": [
        -0.005641703959554434,
        -0.009142685681581497
      ],
      "type": "VEC2"
    },
    {
      "bufferView": 1,
      "byteOffset": 4654336,
      "componentType": 5126,
      "count": 36856,
      "max": [
        1.0046466588974,
        1.0000001192092896
      ],
      "min": [
        -0.005641703959554434,
        -0.009142685681581497
      ],
      "type": "VEC2"
    },
    {
      "bufferView": 0,
      "byteOffset": 3368928,
      "componentType": 5125,
      "count": 185376,
      "type": "SCALAR"
    },
    {
      "bufferView": 2,
      "byteOffset": 4949184,
      "componentType": 5126,
      "count": 534,
      "max": [
        0.5176833271980286,
        0.039488229900598526,
        0.07775218784809113
      ],
      "min": [
        -0.5176833271980286,
        -0.03948799893260002,
        -4.523605823516846
      ],
      "type": "VEC3"
    },
    {
      "bufferView": 2,
      "byteOffset": 4955592,
      "componentType": 5126,
      "count": 534,
      "max": [
        1.0,
        0.7073705792427063,
        1.0
      ],
      "min": [
        -1.0,
        -0.707298755645752,
        -1.0
      ],
      "type": "VEC3"
    },
    {
      "bufferView": 1,
      "byteOffset": 4949184,
      "componentType": 5126,
      "count": 534,
      "max": [
        0.875,
        0.9832900166511536
      ],
      "min": [
        0.2559398412704468,
        0.26670998334884644
      ],
      "type": "VEC2"
    },
    {
      "bufferView": 1,
      "byteOffset": 4953456,
      "componentType": 5126,
      "count": 534,
      "max": [
        0.875,
        0.9832900166511536
      ],
      "min": [
        0.2559398412704468,
        0.26670998334884644
      ],
      "type": "VEC2"
    },
    {
      "bufferView": 1,
      "byteOffset": 4957728,
      "componentType": 5126,
      "count": 534,
      "max": [
        0.875,
        0.9832900166511536
      ],
      "min": [
        0.2559398412704468,
        0.26670998334884644
      ],
      "type": "VEC2"
    },
    {
      "bufferView": 0,
      "byteOffset": 4110432,
      "componentType": 5125,
      "count": 804,
      "type": "SCALAR"
    },
    {
      "bufferView": 2,
      "byteOffset": 4962000,
      "componentType": 5126,
      "count": 36864,
      "max": [
        0.7654971480369568,
        0.09187735617160797,
        0.12714789807796478
      ],
      "min": [
        -0.7649810910224915,
        -0.03673116862773895,
        -0.4048480689525604
      ],
      "type": "VEC3"
    },
    {
      "bufferView": 2,
      "byteOffset": 5404368,
      "componentType": 5126,
      "count": 36864,
      "max": [
        0.999984860420227,
        1.0,
        0.9999338388442993
      ],
      "min": [
        -0.999984860420227,
        -1.0,
        -0.9999828338623047
      ],
      "type": "VEC3"
    },
    {
      "bufferView": 1,
      "byteOffset": 4962000,
      "componentType": 5126,
      "count": 36864,
      "max": [
        1.0046466588974,
        1.0000001192092896
      ],
      "min": [
        -0.005641703959554434,
        -0.009142685681581497
      ],
      "type": "VEC2"
    },
    {
      "bufferView": 1,
      "byteOffset": 5256912,
      "componentType": 5126,
      "count": 36864,
      "max": [
        1.0046466588974,
        1.0000001192092896
      ],
      "min": [
        -0.005641703959554434,
        -0.009142685681581497
      ],
      "type": "VEC2"
    },
    {
      "bufferView": 1,
      "byteOffset": 5551824,
      "componentType": 5126,
      "count": 36864,
      "max": [
        1.0046466588974,
        1.0000001192092896
      ],
      "min": [
        -0.005641703959554434,
        -0.009142685681581497
      ],
      "type": "VEC2"
    },
    {
      "bufferView": 0,
      "byteOffset": 4113648,
      "componentType": 5125,
      "count": 185376,
      "type": "SCALAR"
    },
    {
      "bufferView": 2,
      "byteOffset": 5846736,
      "componentType": 5126,
      "count": 384,
      "max": [
        0.0044256821274757385,
        0.18000075221061707,
        0.004425541963428259
      ],
      "min": [
        -0.684213399887085,
        -0.023923441767692566,
        -0.6842136383056641
      ],
      "type": "VEC3"
    },
    {
      "bufferView": 2,
      "byteOffset": 5851344,
      "componentType": 5126,
      "count": 384,
      "max": [
        1.0,
        1.0,
        1.0
      ],
      "min": [
        -1.0,
        -1.0,
        -1.0
      ],
      "type": "VEC3"
    },
    {
      "bufferView": 1,
      "byteOffset": 5846736,
      "componentType": 5126,
      "count": 384,
      "max": [
        0.875,
        1.0
      ],
      "min": [
        0.125,
        0.0
      ],
      "type": "VEC2"
    },
    {
      "bufferView": 1,
      "byteOffset": 5849808,
      "componentType": 5126,
      "count": 384,
      "max": [
        0.875,
        1.0
      ],
      "min": [
        0.125,
        0.0
      ],
      "type": "VEC2"
    },
    {
      "bufferView": 1,
      "byteOffset": 5852880,
      "componentType": 5126,
      "count": 384,
      "max": [
        0.875,
        1.0
      ],
      "min": [
        0.125,
        0.0
      ],
      "type": "VEC2"
    },
    {
      "bufferView": 0,
      "byteOffset": 4855152,
      "componentType": 5125,
      "count": 528,
      "type": "SCALAR"
    },
    {
      "bufferView": 2,
      "byteOffset": 5855952,
      "componentType": 5126,
      "count": 192,
      "max": [
        0.013048992492258549,
        0.10460469126701355,
        0.01304857898503542
      ],
      "min": [
        -0.5329123139381409,
        -0.10460464656352997,
        -0.5329127311706543
      ],
      "type": "VEC3"
    },
    {
      "bufferView": 2,
      "byteOffset": 5858256,
      "componentType": 5126,
      "count": 192,
      "max": [
        1.0,
        1.0,
        1.0
      ],
      "min": [
        -1.0,
        -1.0,
        -1.0
      ],
      "type": "VEC3"
    },
    {
      "bufferView": 1,
      "byteOffset": 5855952,
      "componentType": 5126,
      "count": 192,
      "max": [
        0.875,
        1.0
      ],
      "min": [
        0.125,
        0.0
      ],
      "type": "VEC2"
    },
    {
      "bufferView": 1,
      "byteOffset": 5857488,
      "componentType": 5126,
      "count": 192,
      "max": [
        0.875,
        1.0
      ],
      "min": [
        0.125,
        0.0
      ],
      "type": "VEC2"
    },
    {
      "bufferView": 1,
      "byteOffset": 5859024,
      "componentType": 5126,
      "count": 192,
      "max": [
        0.875,
        1.0
      ],
      "min": [
        0.125,
        0.0
      ],
      "type": "VEC2"
    },
    {
      "bufferView": 0,
      "byteOffset": 4857264,
      "componentType": 5125,
      "count": 264,
      "type": "SCALAR"
    },
    {
      "bufferView": 2,
      "byteOffset": 5860560,
      "componentType": 5126,
      "count": 9850,
      "max": [
        0.5000000596046448,
        0.0019345222972333431,
        0.04530573636293411
      ],
      "min": [
        -0.5000000596046448,
        -1.996464729309082,
        -0.19038259983062744
      ],
      "type": "VEC3"
    },
    {
      "bufferView": 2,
      "byteOffset": 5978760,
      "componentType": 5126,
      "count": 9850,
      "max": [
        1.0,
        1.0,
        0.9999983906745911
      ],
      "min": [
        -1.0,
        -1.0,
        -0.9999983906745911
      ],
      "type": "VEC3"
    },
    {
      "bufferView": 3,
      "byteOffset": 315200,
      "componentType": 5126,
      "count": 9850,
      "max": [
        1.0,
        0.9672597050666809,
        1.0,
        1.0
      ],
      "min": [
        -0.953339159488678,
        -0.9654872417449951,
        -1.0,
        -1.0
      ],
      "type": "VEC4"
    },
    {
      "bufferView": 1,
      "byteOffset": 5860560,
      "componentType": 5126,
      "count": 9850,
      "max": [
        0.7470017075538635,
        0.9844318628311157
      ],
      "min": [
        0.25306418538093567,
        0.021138837561011314
      ],
      "type": "VEC2"
    },
    {
      "bufferView": 1,
      "byteOffset": 5939360,
      "componentType": 5126,
      "count": 9850,
      "max": [
        0.7470017075538635,
        0.9844318628311157
      ],
      "min": [
        0.25306418538093567,
        0.021138837561011314
      ],
      "type": "VEC2"
    },
    {
      "bufferView": 1,
      "byteOffset": 6018160,
      "componentType": 5126,
      "count": 9850,
      "max": [
        0.7470017075538635,
        0.9844318628311157
      ],
      "min": [
        0.25306418538093567,
        0.021138837561011314
      ],
      "type": "VEC2"
    },
    {
      "bufferView": 0,
      "byteOffset": 4858320,
      "componentType": 5125,
      "count": 48768,
      "type": "SCALAR"
    },
    {
      "bufferView": 2,
      "byteOffset": 6096960,
      "componentType": 5126,
      "count": 36856,
      "max": [
        0.7654971480369568,
        0.2234455943107605,
        0.12603773176670074
      ],
      "min": [
        -0.7660128474235535,
        -0.03673116862773895,
        -0.4048477113246918
      ],
      "type": "VEC3"
    },
    {
      "bufferView": 2,
      "byteOffset": 6539232,
      "componentType": 5126,
      "count": 36856,
      "max": [
        0.999984860420227,
        1.0,
        0.9999760389328003
      ],
      "min": [
        -0.999984860420227,
        -1.0,
        -0.9999855756759644
      ],
      "type": "VEC3"
    },
    {
      "bufferView": 1,
      "byteOffset": 6096960,
      "componentType": 5126,
      "count": 36856,
      "max": [
        1.0046466588974,
        1.0000001192092896
      ],
      "min": [
        -0.005641703959554434,
        -0.009142685681581497
      ],
      "type": "VEC2"
    },
    {
      "bufferView": 1,
      "byteOffset": 6391808,
      "componentType": 5126,
      "count": 36856,
      "max": [
        1.0046466588974,
        1.0000001192092896
      ],
      "min": [
        -0.005641703959554434,
        -0.009142685681581497
      ],
      "type": "VEC2"
    },
    {
      "bufferView": 1,
      "byteOffset": 6686656,
      "componentType": 5126,
      "count": 36856,
      "max": [
        1.0046466588974,
        1.0000001192092896
      ],
      "min": [
        -0.005641703959554434,
        -0.009142685681581497
      ],
      "type": "VEC2"
    },
    {
      "bufferView": 0,
      "byteOffset": 5053392,
      "componentType": 5125,
      "count": 185376,
      "type": "SCALAR"
    },
    {
      "bufferView": 2,
      "byteOffset": 6981504,
      "componentType": 5126,
      "count": 534,
      "max": [
        0.5176833271980286,
        0.039488229900598526,
        0.07775218784809113
      ],
      "min": [
        -0.5176833271980286,
        -0.03948799893260002,
        -4.523605823516846
      ],
      "type": "VEC3"
    },
    {
      "bufferView": 2,
      "byteOffset": 6987912,
      "componentType": 5126,
      "count": 534,
      "max": [
        1.0,
        0.7073705792427063,
        1.0
      ],
      "min": [
        -1.0,
        -0.707298755645752,
        -1.0
      ],
      "type": "VEC3"
    },
    {
      "bufferView": 1,
      "byteOffset": 6981504,
      "componentType": 5126,
      "count": 534,
      "max": [
        0.875,
        0.9832900166511536
      ],
      "min": [
        0.2559398412704468,
        0.26670998334884644
      ],
      "type": "VEC2"
    },
    {
      "bufferView": 1,
      "byteOffset": 6985776,
      "componentType": 5126,
      "count": 534,
      "max": [
        0.875,
        0.9832900166511536
      ],
      "min": [
        0.2559398412704468,
        0.26670998334884644
      ],
      "type": "VEC2"
    },
    {
      "bufferView": 1,
      "byteOffset": 6990048,
      "componentType": 5126,
      "count": 534,
      "max": [
        0.875,
        0.9832900166511536
      ],
      "min": [
        0.2559398412704468,
        0.26670998334884644
      ],
      "type": "VEC2"
    },
    {
      "bufferView": 0,
      "byteOffset": 5794896,
      "componentType": 5125,
      "count": 804,
      "type": "SCALAR"
    },
    {
      "bufferView": 2,
      "byteOffset": 6994320,
      "componentType": 5126,
      "count": 36864,
      "max": [
        0.7654971480369568,
        0.09187735617160797,
        0.12714789807796478
      ],
      "min": [
        -0.7649810910224915,
        -0.03673116862773895,
        -0.4048480689525604
      ],
      "type": "VEC3"
    },
    {
      "bufferView": 2,
      "byteOffset": 7436688,
      "componentType": 5126,
      "count": 36864,
      "max": [
        0.999984860420227,
        1.0,
        0.9999338388442993
      ],
      "min": [
        -0.999984860420227,
        -1.0,
        -0.9999828338623047
      ],
      "type": "VEC3"
    },
    {
      "bufferView": 1,
      "byteOffset": 6994320,
      "componentType": 5126,
      "count": 36864,
      "max": [
        1.0046466588974,
        1.0000001192092896
      ],
      "min": [
        -0.005641703959554434,
        -0.009142685681581497
      ],
      "type": "VEC2"
    },
    {
      "bufferView": 1,
      "byteOffset": 7289232,
      "componentType": 5126,
      "count": 36864,
      "max": [
        1.0046466588974,
        1.0000001192092896
      ],
      "min": [
        -0.005641703959554434,
        -0.009142685681581497
      ],
      "type": "VEC2"
    },
    {
      "bufferView": 1,
      "byteOffset": 7584144,
      "componentType": 5126,
      "count": 36864,
      "max": [
        1.0046466588974,
        1.0000001192092896
      ],
      "min": [
        -0.005641703959554434,
        -0.009142685681581497
      ],
      "type": "VEC2"
    },
    {
      "bufferView": 0,
      "byteOffset": 5798112,
      "componentType": 5125,
      "count": 185376,
      "type": "SCALAR"
    },
    {
      "bufferView": 2,
      "byteOffset": 7879056,
      "componentType": 5126,
      "count": 384,
      "max": [
        0.0044256821274757385,
        0.18000075221061707,
        0.004425541963428259
      ],
      "min": [
        -0.684213399887085,
        -0.023923441767692566,
        -0.6842136383056641
      ],
      "type": "VEC3"
    },
    {
      "bufferView": 2,
      "byteOffset": 7883664,
      "componentType": 5126,
      "count": 384,
      "max": [
        1.0,
        1.0,
        1.0
      ],
      "min": [
        -1.0,
        -1.0,
        -1.0
      ],
      "type": "VEC3"
    },
    {
      "bufferView": 1,
      "byteOffset": 7879056,
      "componentType": 5126,
      "count": 384,
      "max": [
        0.875,
        1.0
      ],
      "min": [
        0.125,
        0.0
      ],
      "type": "VEC2"
    },
    {
      "bufferView": 1,
      "byteOffset": 7882128,
      "componentType": 5126,
      "count": 384,
      "max": [
        0.875,
        1.0
      ],
      "min": [
        0.125,
        0.0
      ],
      "type": "VEC2"
    },
    {
      "bufferView": 1,
      "byteOffset": 7885200,
      "componentType": 5126,
      "count": 384,
      "max": [
        0.875,
        1.0
      ],
      "min": [
        0.125,
        0.0
      ],
      "type": "VEC2"
    },
    {
      "bufferView": 0,
      "byteOffset": 6539616,
      "componentType": 5125,
      "count": 528,
      "type": "SCALAR"
    },
    {
      "bufferView": 2,
      "byteOffset": 7888272,
      "componentType": 5126,
      "count": 192,
      "max": [
        0.013048992492258549,
        0.10460469126701355,
        0.01304857898503542
      ],
      "min": [
        -0.5329123139381409,
        -0.10460464656352997,
        -0.5329127311706543
      ],
      "type": "VEC3"
    },
    {
      "bufferView": 2,
      "byteOffset": 7890576,
      "componentType": 5126,
      "count": 192,
      "max": [
        1.0,
        1.0,
        1.0
      ],
      "min": [
        -1.0,
        -1.0,
        -1.0
      ],
      "type": "VEC3"
    },
    {
      "bufferView": 1,
      "byteOffset": 7888272,
      "componentType": 5126,
      "count": 192,
      "max": [
        0.875,
        1.0
      ],
      "min": [
        0.125,
        0.0
      ],
      "type": "VEC2"
    },
    {
      "bufferView": 1,
      "byteOffset": 7889808,
      "componentType": 5126,
      "count": 192,
      "max": [
        0.875,
        1.0
      ],
      "min": [
        0.125,
        0.0
      ],
      "type": "VEC2"
    },
    {
      "bufferView": 1,
      "byteOffset": 7891344,
      "componentType": 5126,
      "count": 192,
      "max": [
        0.875,
        1.0
      ],
      "min": [
        0.125,
        0.0
      ],
      "type": "VEC2"
    },
    {
      "bufferView": 0,
      "byteOffset": 6541728,
      "componentType": 5125,
      "count": 264,
      "type": "SCALAR"
    },
    {
      "bufferView": 2,
      "byteOffset": 7892880,
      "componentType": 5126,
      "count": 9850,
      "max": [
        0.5000000596046448,
        0.0019345222972333431,
        0.04530573636293411
      ],
      "min": [
        -0.5000000596046448,
        -1.996464729309082,
        -0.19038259983062744
      ],
      "type": "VEC3"
    },
    {
      "bufferView": 2,
      "byteOffset": 8011080,
      "componentType": 5126,
      "count": 9850,
      "max": [
        1.0,
        1.0,
        0.9999983906745911
      ],
      "min": [
        -1.0,
        -1.0,
        -0.9999983906745911
      ],
      "type": "VEC3"
    },
    {
      "bufferView": 3,
      "byteOffset": 472800,
      "componentType": 5126,
      "count": 9850,
      "max": [
        1.0,
        0.9672597050666809,
        1.0,
        1.0
      ],
      "min": [
        -0.953339159488678,
        -0.9654872417449951,
        -1.0,
        -1.0
      ],
      "type": "VEC4"
    },
    {
      "bufferView": 1,
      "byteOffset": 7892880,
      "componentType": 5126,
      "count": 9850,
      "max": [
        0.7470017075538635,
        0.9844318628311157
      ],
      "min": [
        0.25306418538093567,
        0.021138837561011314
      ],
      "type": "VEC2"
    },
    {
      "bufferView": 1,
      "byteOffset": 7971680,
      "componentType": 5126,
      "count": 9850,
      "max": [
        0.7470017075538635,
        0.9844318628311157
      ],
      "min": [
        0.25306418538093567,
        0.021138837561011314
      ],
      "type": "VEC2"
    },
    {
      "bufferView": 1,
      "byteOffset": 8050480,
      "componentType": 5126,
      "count": 9850,
      "max": [
        0.7470017075538635,
        0.9844318628311157
      ],
      "min": [
        0.25306418538093567,
        0.021138837561011314
      ],
      "type": "VEC2"
    },
    {
      "bufferView": 0,
      "byteOffset": 6542784,
      "componentType": 5125,
      "count": 48768,
      "type": "SCALAR"
    }
  ],
  "asset": {
    "extras": {
      "author": "Kianga (https://sketchfab.com/kianga)",
      "license": "CC-BY-NC-4.0 (http://creativecommons.org/licenses/by-nc/4.0/)",
      "source": "https://sketchfab.com/3d-models/charr-legion-banners-d4d91f5317ef4335932dff81c258ae53",
      "title": "Charr Legion Banners"
    },
    "generator": "Sketchfab-13.21.0",
    "version": "2.0"
  },
  "bufferViews": [
    {
      "buffer": 0,
      "byteLength": 6737856,
      "name": "floatBufferViews",
      "target": 34963
    },
    {
      "buffer": 0,
      "byteLength": 8129280,
      "byteOffset": 6737856,
      "byteStride": 8,
      "name": "floatBufferViews",
      "target": 34962
    },
    {
      "buffer": 0,
      "byteLength": 8129280,
      "byteOffset": 14867136,
      "byteStride": 12,
      "name": "floatBufferViews",
      "target": 34962
    },
    {
      "buffer": 0,
      "byteLength": 630400,
      "byteOffset": 22996416,
      "byteStride": 16,
      "name": "floatBufferViews",
      "target": 34962
    }
  ],
  "buffers": [
    {
      "byteLength": 23626816,
      "uri": "scene.bin"
    }
  ],
  "images": [
    {
      "uri": "textures/AshLegionBanner_baseColor.png"
    },
    {
      "uri": "textures/AshLegionBanner_metallicRoughness.png"
    },
    {
      "uri": "textures/AshLegionBanner_normal.png"
    },
    {
      "uri": "textures/BloodLegionBanner_baseColor.png"
    },
    {
      "uri": "textures/BloodLegionBanner_metallicRoughness.png"
    },
    {
      "uri": "textures/BloodLegionBanner_normal.png"
    },
    {
      "uri": "textures/FlameLegionBanner_baseColor.png"
    },
    {
      "uri": "textures/FlameLegionBanner_metallicRoughness.png"
    },
    {
      "uri": "textures/FlameLegionBanner_normal.png"
    },
    {
      "uri": "textures/IronLegionBanner_baseColor.png"
    },
    {
      "uri": "textures/IronLegionBanner_metallicRoughness.png"
    },
    {
      "uri": "textures/IronLegionBanner_normal.png"
    }
  ],
  "materials": [
    {
      "doubleSided": true,
      "name": "ForgedIronWeapon",
      "pbrMetallicRoughness": {
        "baseColorFactor": [
          0.2594496403531694,
          0.2631392692993836,
          0.2806968848888971,
          1.0
        ],
        "roughnessFactor": 0.1788854381999832
      }
    },
    {
      "doubleSided": true,
      "name": "BatteredSteel",
      "pbrMetallicRoughness": {
        "baseColorFactor": [
          0.09503719215562158,
          0.0933085158870256,
          0.0933085158870256,
          1.0
        ],
        "roughnessFactor": 0.3421997458487618
      }
    },
    {
      "doubleSided": true,
      "name": "AshLegionBanner",
      "normalTexture": {
        "index": 2
      },
      "pbrMetallicRoughness": {
        "baseColorTexture": {
          "index": 0
        },
        "metallicFactor": 0.0,
        "metallicRoughnessTexture": {
          "index": 1
        }
      }
    },
    {
      "doubleSided": true,
      "name": "BloodLegionBanner",
      "normalTexture": {
        "index": 5
      },
      "pbrMetallicRoughness": {
        "baseColorTexture": {
          "index": 3
        },
        "metallicFactor": 0.0,
        "metallicRoughnessTexture": {
          "index": 4
        }
      }
    },
    {
      "doubleSided": true,
      "name": "FlameLegionBanner",
      "normalTexture": {
        "index": 8
      },
      "pbrMetallicRoughness": {
        "baseColorTexture": {
          "index": 6
        },
        "metallicFactor": 0.0,
        "metallicRoughnessTexture": {
          "index": 7
        }
      }
    },
    {
      "doubleSided": true,
      "name": "IronLegionBanner",
      "normalTexture": {
        "index": 11
      },
      "pbrMetallicRoughness": {
        "baseColorTexture": {
          "index": 9
        },
        "metallicFactor": 0.0,
        "metallicRoughnessTexture": {
          "index": 10
        }
      }
    }
  ],
  "meshes": [
    {
      "name": "AshLegionBannerPole|Deco.Top_L_BannerPole.blend|Dupli|_ForgedIronWeapon_0",
      "primitives": [
        {
          "attributes": {
            "NORMAL": 1,
            "POSITION": 0,
            "TEXCOORD_0": 2,
            "TEXCOORD_1": 3,
            "TEXCOORD_2": 4
          },
          "indices": 5,
          "material": 0,
          "mode": 4
        }
      ]
    },
    {
      "name": "AshLegionBannerPole|BannerPole_L_BannerPole.blend|Dupli|1_BatteredSteel_0",
      "primitives": [
        {
          "attributes": {
            "NORMAL": 7,
            "POSITION": 6,
            "TEXCOORD_0": 8,
            "TEXCOORD_1": 9,
            "TEXCOORD_2": 10
          },
          "indices": 11,
          "material": 1,
          "mode": 4
        }
      ]
    },
    {
      "name": "AshLegionBannerPole|Deco.Bot_L_BannerPole.blend|Dupli|2_ForgedIronWeapon_0",
      "primitives": [
        {
          "attributes": {
            "NORMAL": 13,
            "POSITION": 12,
            "TEXCOORD_0": 14,
            "TEXCOORD_1": 15,
            "TEXCOORD_2": 16
          },
          "indices": 17,
          "material": 0,
          "mode": 4
        }
      ]
    },
    {
      "name": "AshLegionBannerPole|Pins_L_BannerPole.blend|Dupli|3_BatteredSteel_0",
      "primitives": [
        {
          "attributes": {
            "NORMAL": 19,
            "POSITION": 18,
            "TEXCOORD_0": 20,
            "TEXCOORD_1": 21,
            "TEXCOORD_2": 22
          },
          "indices": 23,
          "material": 1,
          "mode": 4
        }
      ]
    },
    {
      "name": "AshLegionBannerPole|CrossBars_L_BannerPole.blend|Dupli|4_BatteredSteel_0",
      "primitives": [
        {
          "attributes": {
            "NORMAL": 25,
            "POSITION": 24,
            "TEXCOORD_0": 26,
            "TEXCOORD_1": 27,
            "TEXCOORD_2": 28
          },
          "indices": 29,
          "material": 1,
          "mode": 4
        }
      ]
    },
    {
      "name": "AshLegionBannerPole|AshLegionBanner.Hanging_L_AshLegionBanner.blend|Dupli|1_AshLegionBanner_0",
      "primitives": [
        {
          "attributes": {
            "NORMAL": 31,
            "POSITION": 30,
            "TANGENT": 32,
            "TEXCOORD_0": 33,
            "TEXCOORD_1": 34,
            "TEXCOORD_2": 35
          },
          "indices": 36,
          "material": 2,
          "mode": 4
        }
      ]
    },
    {
      "name": "BloodLegionBannerPole|Deco.Top_L_BannerPole.blend|Dupli|_ForgedIronWeapon_0",
      "primitives": [
        {
          "attributes": {
            "NORMAL": 38,
            "POSITION": 37,
            "TEXCOORD_0": 39,
            "TEXCOORD_1": 40,
            "TEXCOORD_2": 41
          },
          "indices": 42,
          "material": 0,
          "mode": 4
        }
      ]
    },
    {
      "name": "BloodLegionBannerPole|BannerPole_L_BannerPole.blend|Dupli|1_BatteredSteel_0",
      "primitives": [
        {
          "attributes": {
            "NORMAL": 44,
            "POSITION": 43,
            "TEXCOORD_0": 45,
            "TEXCOORD_1": 46,
            "TEXCOORD_2": 47
          },
          "indices": 48,
          "material": 1,
          "mode": 4
        }
      ]
    },
    {
      "name": "BloodLegionBannerPole|Deco.Bot_L_BannerPole.blend|Dupli|2_ForgedIronWeapon_0",
      "primitives": [
        {
          "attributes": {
            "NORMAL": 50,
            "POSITION": 49,
            "TEXCOORD_0": 51,
            "TEXCOORD_1": 52,
            "TEXCOORD_2": 53
          },
          "indices": 54,
          "material": 0,
          "mode": 4
        }
      ]
    },
    {
      "name": "BloodLegionBannerPole|Pins_L_BannerPole.blend|Dupli|3_BatteredSteel_0",
      "primitives": [
        {
          "attributes": {
            "NORMAL": 56,
            "POSITION": 55,
            "TEXCOORD_0": 57,
            "TEXCOORD_1": 58,
            "TEXCOORD_2": 59
          },
          "indices": 60,
          "material": 1,
          "mode": 4
        }
      ]
    },
    {
      "name": "BloodLegionBannerPole|CrossBars_L_BannerPole.blend|Dupli|4_BatteredSteel_0",
      "primitives": [
        {
          "attributes": {
            "NORMAL": 62,
            "POSITION": 61,
            "TEXCOORD_0": 63,
            "TEXCOORD_1": 64,
            "TEXCOORD_2": 65
          },
          "indices": 66,
          "material": 1,
          "mode": 4
        }
      ]
    },
    {
      "name": "BloodLegionBannerPole|BloodLegionBanner.Hanging_L_BloodLegionBanner.blend|Dupli|1_BloodLegionBanner_0",
      "primitives": [
        {
          "attributes": {
            "NORMAL": 68,
            "POSITION": 67,
            "TANGENT": 69,
            "TEXCOORD_0": 70,
            "TEXCOORD_1": 71,
            "TEXCOORD_2": 72
          },
          "indices": 73,
          "material": 3,
          "mode": 4
        }
      ]
    },
    {
      "name": "FlameLegionBannerPole|Deco.Top_L_BannerPole.blend|Dupli|_ForgedIronWeapon_0",
      "primitives": [
        {
          "attributes": {
            "NORMAL": 75,
            "POSITION": 74,
            "TEXCOORD_0": 76,
            "TEXCOORD_1": 77,
            "TEXCOORD_2": 78
          },
          "indices": 79,
          "material": 0,
          "mode": 4
        }
      ]
    },
    {
      "name": "FlameLegionBannerPole|BannerPole_L_BannerPole.blend|Dupli|1_BatteredSteel_0",
      "primitives": [
        {
          "attributes": {
            "NORMAL": 81,
            "POSITION": 80,
            "TEXCOORD_0": 82,
            "TEXCOORD_1": 83,
            "TEXCOORD_2": 84
          },
          "indices": 85,
          "material": 1,
          "mode": 4
        }
      ]
    },
    {
      "name": "FlameLegionBannerPole|Deco.Bot_L_BannerPole.blend|Dupli|2_ForgedIronWeapon_0",
      "primitives": [
        {
          "attributes": {
            "NORMAL": 87,
            "POSITION": 86,
            "TEXCOORD_0": 88,
            "TEXCOORD_1": 89,
            "TEXCOORD_2": 90
          },
          "indices": 91,
          "material": 0,
          "mode": 4
        }
      ]
    },
    {
      "name": "FlameLegionBannerPole|Pins_L_BannerPole.blend|Dupli|3_BatteredSteel_0",
      "primitives": [
        {
          "attributes": {
            "NORMAL": 93,
            "POSITION": 92,
            "TEXCOORD_0": 94,
            "TEXCOORD_1": 95,
            "TEXCOORD_2": 96
          },
          "indices": 97,
          "material": 1,
          "mode": 4
        }
      ]
    },
    {
      "name": "FlameLegionBannerPole|CrossBars_L_BannerPole.blend|Dupli|4_BatteredSteel_0",
      "primitives": [
        {
          "attributes": {
            "NORMAL": 99,
            "POSITION": 98,
            "TEXCOORD_0": 100,
            "TEXCOORD_1": 101,
            "TEXCOORD_2": 102
          },
          "indices": 103,
          "material": 1,
          "mode": 4
        }
      ]
    },
    {
      "name": "FlameLegionBannerPole|FlameLegionBanner.Hanging_L_FlameLegionBanner.blend|Dupli|1_FlameLegionBanner_0",
      "primitives": [
        {
          "attributes": {
            "NORMAL": 105,
            "POSITION": 104,
            "TANGENT": 106,
            "TEXCOORD_0": 107,
            "TEXCOORD_1": 108,
            "TEXCOORD_2": 109
          },
          "indices": 110,
          "material": 4,
          "mode": 4
        }
      ]
    },
    {
      "name": "IronLegionBannerPole|Deco.Top_L_BannerPole.blend|Dupli|_ForgedIronWeapon_0",
      "primitives": [
        {
          "attributes": {
            "NORMAL": 112,
            "POSITION": 111,
            "TEXCOORD_0": 113,
            "TEXCOORD_1": 114,
            "TEXCOORD_2": 115
          },
          "indices": 116,
          "material": 0,
          "mode": 4
        }
      ]
    },
    {
      "name": "IronLegionBannerPole|BannerPole_L_BannerPole.blend|Dupli|1_BatteredSteel_0",
      "primitives": [
        {
          "attributes": {
            "NORMAL": 118,
            "POSITION": 117,
            "TEXCOORD_0": 119,
            "TEXCOORD_1": 120,
            "TEXCOORD_2": 121
          },
          "indices": 122,
          "material": 1,
          "mode": 4
        }
      ]
    },
    {
      "name": "IronLegionBannerPole|Deco.Bot_L_BannerPole.blend|Dupli|2_ForgedIronWeapon_0",
      "primitives": [
        {
          "attributes": {
            "NORMAL": 124,
            "POSITION": 123,
            "TEXCOORD_0": 125,
            "TEXCOORD_1": 126,
            "TEXCOORD_2": 127
          },
          "indices": 128,
          "material": 0,
          "mode": 4
        }
      ]
    },
    {
      "name": "IronLegionBannerPole|Pins_L_BannerPole.blend|Dupli|3_BatteredSteel_0",
      "primitives": [
        {
          "attributes": {
            "NORMAL": 130,
            "POSITION": 129,
            "TEXCOORD_0": 131,
            "TEXCOORD_1": 132,
            "TEXCOORD_2": 133
          },
          "indices": 134,
          "material": 1,
          "mode": 4
        }
      ]
    },
    {
      "name": "IronLegionBannerPole|CrossBars_L_BannerPole.blend|Dupli|4_BatteredSteel_0",
      "primitives": [
        {
          "attributes": {
            "NORMAL": 136,
            "POSITION": 135,
            "TEXCOORD_0": 137,
            "TEXCOORD_1": 138,
            "TEXCOORD_2": 139
          },
          "indices": 140,
          "material": 1,
          "mode": 4
        }
      ]
    },
    {
      "name": "IronLegionBannerPole|IronLegionBanner.Hanging_L_IronLegionBanner.blend|Dupli|1_IronLegionBanner_0",
      "primitives": [
        {
          "attributes": {
            "NORMAL": 142,
            "POSITION": 141,
            "TANGENT": 143,
            "TEXCOORD_0": 144,
            "TEXCOORD_1": 145,
            "TEXCOORD_2": 146
          },
          "indices": 147,
          "material": 5,
          "mode": 4
        }
      ]
    }
  ],
  "nodes": [
    {
      "children": [
        1
      ],
      "matrix": [
        1.0,
        0.0,
        0.0,
        0.0,
        0.0,
        2.220446049250313e-16,
        -1.0,
        0.0,
        0.0,
        1.0,
        2.220446049250313e-16,
        0.0,
        0.0,
        0.0,
        0.0,
        1.0
      ],
      "name": "Sketchfab_model"
    },
    {
      "children": [
        2
      ],
      "matrix": [
        1.0,
        0.0,
        0.0,
        0.0,
        0.0,
        0.0,
        1.0,
        0.0,
        0.0,
        -1.0,
        0.0,
        0.0,
        0.0,
        0.0,
        0.0,
        1.0
      ],
      "name": "46b86ccf6ff1445d8c4358997bfb7eb1.fbx"
    },
    {
      "children": [
        3,
        16,
        29,
        42
      ],
      "name": "RootNode"
    },
    {
      "children": [
        4,
        6,
        8,
        10,
        12,
        14
      ],
      "matrix": [
        100.0,
        0.0,
        0.0,
        0.0,
        -0.0,
        -1.629206793918314e-05,
        -99.99999999999868,
        0.0,
        0.0,
        99.99999999999868,
        -1.629206793918314e-05,
        0.0,
        -300.0,
        0.0,
        0.0,
        1.0
      ],
      "name": "AshLegionBannerPole"
    },
    {
      "children": [
        5
      ],
      "matrix": [
        1.0,
        0.0,
        0.0,
        0.0,
        0.0,
        1.0,
        -2.646977960169688e-23,
        0.0,
        0.0,
        2.646977960169688e-23,
        1.0,
        0.0,
        0.0002579689025878906,
        -0.09335720539093018,
        4.570296287536621,
        1.0
      ],
      "name": "AshLegionBannerPole|Deco.Top_L_BannerPole.blend|Dupli|"
    },
    {
      "mesh": 0,
      "name": "AshLegionBannerPole|Deco.Top_L_BannerPole.blend|Dupli|_ForgedIronWeapon_0"
    },
    {
      "children": [
        7
      ],
      "matrix": [
        1.0,
        0.0,
        0.0,
        0.0,
        0.0,
        1.0,
        -2.646977960169688e-23,
        0.0,
        0.0,
        2.646977960169688e-23,
        1.0,
        0.0,
        0.0,
        0.0,
        4.431396007537842,
        1.0
      ],
      "name": "AshLegionBannerPole|BannerPole_L_BannerPole.blend|Dupli|1"
    },
    {
      "mesh": 1,
      "name": "AshLegionBannerPole|BannerPole_L_BannerPole.blend|Dupli|1_BatteredSteel_0"
    },
    {
      "children": [
        9
      ],
      "matrix": [
        -0.9999999999999245,
        -1.2246467991472608e-16,
        3.894143777553014e-07,
        0.0,
        -1.224647276042425e-16,
        1.0,
        -1.2246467991472608e-16,
        0.0,
        -3.894143777553014e-07,
        -1.224647276042425e-16,
        -0.9999999999999245,
        0.0,
        0.0002579689025878906,
        -0.02757309377193451,
        2.416074275970459,
        1.0
      ],
      "name": "AshLegionBannerPole|Deco.Bot_L_BannerPole.blend|Dupli|2"
    },
    {
      "mesh": 2,
      "name": "AshLegionBannerPole|Deco.Bot_L_BannerPole.blend|Dupli|2_ForgedIronWeapon_0"
    },
    {
      "children": [
        11
      ],
      "matrix": [
        0.7071067235853895,
        -1.3234889800848446e-23,
        -0.7071067544940083,
        0.0,
        -7.752818581164474e-24,
        1.0,
        -2.6469779601696886e-23,
        0.0,
        0.7071067544940083,
        2.4199029513291314e-23,
        0.7071067235853895,
        0.0,
        0.4806826114654541,
        -0.07803865522146225,
        4.269819259643555,
        1.0
      ],
      "name": "AshLegionBannerPole|Pins_L_BannerPole.blend|Dupli|3"
    },
    {
      "mesh": 3,
      "name": "AshLegionBannerPole|Pins_L_BannerPole.blend|Dupli|3_BatteredSteel_0"
    },
    {
      "children": [
        13
      ],
      "matrix": [
        0.7071067235853895,
        -1.3234889800848446e-23,
        -0.7071067544940083,
        0.0,
        -7.752818581164474e-24,
        1.0,
        -2.6469779601696886e-23,
        0.0,
        0.7071067544940083,
        2.4199029513291314e-23,
        0.7071067235853895,
        0.0,
        0.3675992488861084,
        0.0,
        4.354290008544922,
        1.0
      ],
      "name": "AshLegionBannerPole|CrossBars_L_BannerPole.blend|Dupli|4"
    },
    {
      "mesh": 4,
      "name": "AshLegionBannerPole|CrossBars_L_BannerPole.blend|Dupli|4_BatteredSteel_0"
    },
    {
      "children": [
        15
      ],
      "matrix": [
        1.0,
        0.0,
        0.0,
        0.0,
        0.0,
        -1.6292067939183141e-07,
        0.9999999999999868,
        0.0,
        0.0,
        -0.9999999999999868,
        -1.6292067939183141e-07,
        0.0,
        0.0,
        -0.07253849506378174,
        4.286292552947998,
        1.0
      ],
      "name": "AshLegionBannerPole|AshLegionBanner.Hanging_L_AshLegionBanner.blend|Dupli|1"
    },
    {
      "mesh": 5,
      "name": "AshLegionBannerPole|AshLegionBanner.Hanging_L_AshLegionBanner.blend|Dupli|1_AshLegionBanner_0"
    },
    {
      "children": [
        17,
        19,
        21,
        23,
        25,
        27
      ],
      "matrix": [
        100.0,
        0.0,
        0.0,
        0.0,
        -0.0,
        -1.629206793918314e-05,
        -99.99999999999868,
        0.0,
        0.0,
        99.99999999999868,
        -1.629206793918314e-05,
        0.0,
        -100.0,
        0.0,
        0.0,
        1.0
      ],
      "name": "BloodLegionBannerPole"
    },
    {
      "children": [
        18
      ],
      "matrix": [
        1.0,
        0.0,
        0.0,
        0.0,
        0.0,
        1.0,
        -2.646977960169688e-23,
        0.0,
        0.0,
        2.646977960169688e-23,
        1.0,
        0.0,
        0.00025790929794311523,
        -0.09335720539093018,
        4.570296287536621,
        1.0
      ],
      "name": "BloodLegionBannerPole|Deco.Top_L_BannerPole.blend|Dupli|"
    },
    {
      "mesh": 6,
      "name": "BloodLegionBannerPole|Deco.Top_L_BannerPole.blend|Dupli|_ForgedIronWeapon_0"
    },
    {
      "children": [
        20
      ],
      "matrix": [
        1.0,
        0.0,
        0.0,
        0.0,
        0.0,
        1.0,
        -2.646977960169688e-23,
        0.0,
        0.0,
        2.646977960169688e-23,
        1.0,
        0.0,
        0.0,
        0.0,
        4.431396007537842,
        1.0
      ],
      "name": "BloodLegionBannerPole|BannerPole_L_BannerPole.blend|Dupli|1"
    },
    {
      "mesh": 7,
      "name": "BloodLegionBannerPole|BannerPole_L_BannerPole.blend|Dupli|1_BatteredSteel_0"
    },
    {
      "children": [
        22
      ],
      "matrix": [
        -0.9999999999999245,
        -1.2246467991472608e-16,
        3.894143777553014e-07,
        0.0,
        -1.224647276042425e-16,
        1.0,
        -1.2246467991472608e-16,
        0.0,
        -3.894143777553014e-07,
        -1.224647276042425e-16,
        -0.9999999999999245,
        0.0,
        0.00025790929794311523,
        -0.02757309377193451,
        2.416074275970459,
        1.0
      ],
      "name": "BloodLegionBannerPole|Deco.Bot_L_BannerPole.blend|Dupli|2"
    },
    {
      "mesh": 8,
      "name": "BloodLegionBannerPole|Deco.Bot_L_BannerPole.blend|Dupli|2_ForgedIronWeapon_0"
    },
    {
      "children": [
        24
      ],
      "matrix": [
        0.7071067235853895,
        -1.3234889800848446e-23,
        -0.7071067544940083,
        0.0,
        -7.752818581164474e-24,
        1.0,
        -2.6469779601696886e-23,
        0.0,
        0.7071067544940083,
        2.4199029513291314e-23,
        0.7071067235853895,
        0.0,
        0.4806826114654541,
        -0.07803865522146225,
        4.269819259643555,
        1.0
      ],
      "name": "BloodLegionBannerPole|Pins_L_BannerPole.blend|Dupli|3"
    },
    {
      "mesh": 9,
      "name": "BloodLegionBannerPole|Pins_L_BannerPole.blend|Dupli|3_BatteredSteel_0"
    },
    {
      "children": [
        26
      ],
      "matrix": [
        0.7071067235853895,
        -1.3234889800848446e-23,
        -0.7071067544940083,
        0.0,
        -7.752818581164474e-24,
        1.0,
        -2.6469779601696886e-23,
        0.0,
        0.7071067544940083,
        2.4199029513291314e-23,
        0.7071067235853895,
        0.0,
        0.36759912967681885,
        0.0,
        4.354290008544922,
        1.0
      ],
      "name": "BloodLegionBannerPole|CrossBars_L_BannerPole.blend|Dupli|4"
    },
    {
      "mesh": 10,
      "name": "BloodLegionBannerPole|CrossBars_L_BannerPole.blend|Dupli|4_BatteredSteel_0"
    },
    {
      "children": [
        28
      ],
      "matrix": [
        1.0,
        0.0,
        0.0,
        0.0,
        0.0,
        -1.6292067939183141e-07,
        0.9999999999999868,
        0.0,
        0.0,
        -0.9999999999999868,
        -1.6292067939183141e-07,
        0.0,
        0.0,
        -0.07253849506378174,
        4.286292552947998,
        1.0
      ],
      "name": "BloodLegionBannerPole|BloodLegionBanner.Hanging_L_BloodLegionBanner.blend|Dupli|1"
    },
    {
      "mesh": 11,
      "name": "BloodLegionBannerPole|BloodLegionBanner.Hanging_L_BloodLegionBanner.blend|Dupli|1_BloodLegionBanner_0"
    },
    {
      "children": [
        30,
        32,
        34,
        36,
        38,
        40
      ],
      "matrix": [
        100.0,
        0.0,
        0.0,
        0.0,
        0.0,
        -1.629206793918314e-05,
        -99.99999999999868,
        0.0,
        0.0,
        99.99999999999868,
        -1.629206793918314e-05,
        0.0,
        100.0,
        0.0,
        0.0,
        1.0
      ],
      "name": "FlameLegionBannerPole"
    },
    {
      "children": [
        31
      ],
      "matrix": [
        1.0,
        0.0,
        0.0,
        0.0,
        0.0,
        1.0,
        -2.646977960169688e-23,
        0.0,
        0.0,
        2.646977960169688e-23,
        1.0,
        0.0,
        0.0002579689025878906,
        -0.09335720539093018,
        4.570296287536621,
        1.0
      ],
      "name": "FlameLegionBannerPole|Deco.Top_L_BannerPole.blend|Dupli|"
    },
    {
      "mesh": 12,
      "name": "FlameLegionBannerPole|Deco.Top_L_BannerPole.blend|Dupli|_ForgedIronWeapon_0"
    },
    {
      "children": [
        33
      ],
      "matrix": [
        1.0,
        0.0,
        0.0,
        0.0,
        0.0,
        1.0,
        -2.646977960169688e-23,
        0.0,
        0.0,
        2.646977960169688e-23,
        1.0,
        0.0,
        0.0,
        0.0,
        4.431396007537842,
        1.0
      ],
      "name": "FlameLegionBannerPole|BannerPole_L_BannerPole.blend|Dupli|1"
    },
    {
      "mesh": 13,
      "name": "FlameLegionBannerPole|BannerPole_L_BannerPole.blend|Dupli|1_BatteredSteel_0"
    },
    {
      "children": [
        35
      ],
      "matrix": [
        -0.9999999999999245,
        -1.2246467991472608e-16,
        3.894143777553014e-07,
        0.0,
        -1.224647276042425e-16,
        1.0,
        -1.2246467991472608e-16,
        0.0,
        -3.894143777553014e-07,
        -1.224647276042425e-16,
        -0.9999999999999245,
        0.0,
        0.0002579689025878906,
        -0.02757309377193451,
        2.416074275970459,
        1.0
      ],
      "name": "FlameLegionBannerPole|Deco.Bot_L_BannerPole.blend|Dupli|2"
    },
    {
      "mesh": 14,
      "name": "FlameLegionBannerPole|Deco.Bot_L_BannerPole.blend|Dupli|2_ForgedIronWeapon_0"
    },
    {
      "children": [
        37
      ],
      "matrix": [
        0.7071067235853895,
        -1.3234889800848446e-23,
        -0.7071067544940083,
        0.0,
        -7.752818581164474e-24,
        1.0,
        -2.6469779601696886e-23,
        0.0,
        0.7071067544940083,
        2.4199029513291314e-23,
        0.7071067235853895,
        0.0,
        0.4806826114654541,
        -0.07803865522146225,
        4.269819259643555,
        1.0
      ],
      "name": "FlameLegionBannerPole|Pins_L_BannerPole.blend|Dupli|3"
    },
    {
      "mesh": 15,
      "name": "FlameLegionBannerPole|Pins_L_BannerPole.blend|Dupli|3_BatteredSteel_0"
    },
    {
      "children": [
        39
      ],
      "matrix": [
        0.7071067235853895,
        -1.3234889800848446e-23,
        -0.7071067544940083,
        0.0,
        -7.752818581164474e-24,
        1.0,
        -2.6469779601696886e-23,
        0.0,
        0.7071067544940083,
        2.4199029513291314e-23,
        0.7071067235853895,
        0.0,
        0.36759912967681885,
        0.0,
        4.354290008544922,
        1.0
      ],
      "name": "FlameLegionBannerPole|CrossBars_L_BannerPole.blend|Dupli|4"
    },
    {
      "mesh": 16,
      "name": "FlameLegionBannerPole|CrossBars_L_BannerPole.blend|Dupli|4_BatteredSteel_0"
    },
    {
      "children": [
        41
      ],
      "matrix": [
        1.0,
        0.0,
        0.0,
        0.0,
        0.0,
        -1.6292067939183141e-07,
        0.9999999999999868,
        0.0,
        0.0,
        -0.9999999999999868,
        -1.6292067939183141e-07,
        0.0,
        0.0,
        -0.07253849506378174,
        4.286292552947998,
        1.0
      ],
      "name": "FlameLegionBannerPole|FlameLegionBanner.Hanging_L_FlameLegionBanner.blend|Dupli|1"
    },
    {
      "mesh": 17,
      "name": "FlameLegionBannerPole|FlameLegionBanner.Hanging_L_FlameLegionBanner.blend|Dupli|1_FlameLegionBanner_0"
    },
    {
      "children": [
        43,
        45,
        47,
        49,
        51,
        53
      ],
      "matrix": [
        100.0,
        0.0,
        0.0,
        0.0,
        0.0,
        -1.629206793918314e-05,
        -99.99999999999868,
        0.0,
        0.0,
        99.99999999999868,
        -1.629206793918314e-05,
        0.0,
        300.0,
        0.0,
        0.0,
        1.0
      ],
      "name": "IronLegionBannerPole"
    },
    {
      "children": [
        44
      ],
      "matrix": [
        1.0,
        0.0,
        0.0,
        0.0,
        0.0,
        1.0,
        -2.646977960169688e-23,
        0.0,
        0.0,
        2.646977960169688e-23,
        1.0,
        0.0,
        0.0002579689025878906,
        -0.09335720539093018,
        4.570296287536621,
        1.0
      ],
      "name": "IronLegionBannerPole|Deco.Top_L_BannerPole.blend|Dupli|"
    },
    {
      "mesh": 18,
      "name": "IronLegionBannerPole|Deco.Top_L_BannerPole.blend|Dupli|_ForgedIronWeapon_0"
    },
    {
      "children": [
        46
      ],
      "matrix": [
        1.0,
        0.0,
        0.0,
        0.0,
        0.0,
        1.0,
        -2.646977960169688e-23,
        0.0,
        0.0,
        2.646977960169688e-23,
        1.0,
        0.0,
        0.0,
        0.0,
        4.431396007537842,
        1.0
      ],
      "name": "IronLegionBannerPole|BannerPole_L_BannerPole.blend|Dupli|1"
    },
    {
      "mesh": 19,
      "name": "IronLegionBannerPole|BannerPole_L_BannerPole.blend|Dupli|1_BatteredSteel_0"
    },
    {
      "children": [
        48
      ],
      "matrix": [
        -0.9999999999999245,
        -1.2246467991472608e-16,
        3.894143777553014e-07,
        0.0,
        -1.224647276042425e-16,
        1.0,
        -1.2246467991472608e-16,
        0.0,
        -3.894143777553014e-07,
        -1.224647276042425e-16,
        -0.9999999999999245,
        0.0,
        0.0002579689025878906,
        -0.02757309377193451,
        2.416074275970459,
        1.0
      ],
      "name": "IronLegionBannerPole|Deco.Bot_L_BannerPole.blend|Dupli|2"
    },
    {
      "mesh": 20,
      "name": "IronLegionBannerPole|Deco.Bot_L_BannerPole.blend|Dupli|2_ForgedIronWeapon_0"
    },
    {
      "children": [
        50
      ],
      "matrix": [
        0.7071067235853895,
        -1.3234889800848446e-23,
        -0.7071067544940083,
        0.0,
        -7.752818581164474e-24,
        1.0,
        -2.6469779601696886e-23,
        0.0,
        0.7071067544940083,
        2.4199029513291314e-23,
        0.7071067235853895,
        0.0,
        0.4806826114654541,
        -0.07803865522146225,
        4.269819259643555,
        1.0
      ],
      "name": "IronLegionBannerPole|Pins_L_BannerPole.blend|Dupli|3"
    },
    {
      "mesh": 21,
      "name": "IronLegionBannerPole|Pins_L_BannerPole.blend|Dupli|3_BatteredSteel_0"
    },
    {
      "children": [
        52
      ],
      "matrix": [
        0.7071067235853895,
        -1.3234889800848446e-23,
        -0.7071067544940083,
        0.0,
        -7.752818581164474e-24,
        1.0,
        -2.6469779601696886e-23,
        0.0,
        0.7071067544940083,
        2.4199029513291314e-23,
        0.7071067235853895,
        0.0,
        0.3675992488861084,
        0.0,
        4.354290008544922,
        1.0
      ],
      "name": "IronLegionBannerPole|CrossBars_L_BannerPole.blend|Dupli|4"
    },
    {
      "mesh": 22,
      "name": "IronLegionBannerPole|CrossBars_L_BannerPole.blend|Dupli|4_BatteredSteel_0"
    },
    {
      "children": [
        54
      ],
      "matrix": [
        1.0,
        0.0,
        0.0,
        0.0,
        0.0,
        -1.6292067939183141e-07,
        0.9999999999999868,
        0.0,
        0.0,
        -0.9999999999999868,
        -1.6292067939183141e-07,
        0.0,
        0.0,
        -0.07253849506378174,
        4.286292552947998,
        1.0
      ],
      "name": "IronLegionBannerPole|IronLegionBanner.Hanging_L_IronLegionBanner.blend|Dupli|1"
    },
    {
      "mesh": 23,
      "name": "IronLegionBannerPole|IronLegionBanner.Hanging_L_IronLegionBanner.blend|Dupli|1_IronLegionBanner_0"
    }
  ],
  "samplers": [
    {
      "magFilter": 9729,
      "minFilter": 9987,
      "wrapS": 10497,
      "wrapT": 10497
    }
  ],
  "scene": 0,
  "scenes": [
    {
      "name": "Sketchfab_Scene",
      "nodes": [
        0
      ]
    }
  ],
  "textures": [
    {
      "sampler": 0,
      "source": 0
    },
    {
      "sampler": 0,
      "source": 1
    },
    {
      "sampler": 0,
      "source": 2
    },
    {
      "sampler": 0,
      "source": 3
    },
    {
      "sampler": 0,
      "source": 4
    },
    {
      "sampler": 0,
      "source": 5
    },
    {
      "sampler": 0,
      "source": 6
    },
    {
      "sampler": 0,
      "source": 7
    },
    {
      "sampler": 0,
      "source": 8
    },
    {
      "sampler": 0,
      "source": 9
    },
    {
      "sampler": 0,
      "source": 10
    },
    {
      "sampler": 0,
      "source": 11
    }
  ]
}
